<svg width="478" height="1137" viewBox="0 0 478 1137" fill="none" xmlns="http://www.w3.org/2000/svg">
<g clip-path="url(#clip0_9_3)">
<path d="M5.10595 396.866C5.99148 396.862 6.87702 396.858 7.78939 396.853C8.76897 396.854 9.74854 396.854 10.7578 396.855C11.784 396.851 12.8103 396.848 13.8676 396.845C17.2867 396.835 20.7058 396.833 24.125 396.832C26.5042 396.829 28.8835 396.825 31.2627 396.822C36.2699 396.816 41.277 396.814 46.2842 396.815C52.6599 396.815 59.0355 396.801 65.4112 396.784C70.3376 396.773 75.264 396.771 80.1904 396.771C82.5376 396.77 84.8848 396.766 87.232 396.758C113.503 396.679 139.505 397.532 159.84 416.648C174.238 432.323 179.917 451.629 179.285 472.637C178.324 490.986 170.798 507.065 157.68 519.82C152.027 524.418 145.498 527.751 139 531C140.374 534.605 141.973 537.971 143.801 541.367C144.638 542.925 144.638 542.925 145.493 544.515C146.093 545.624 146.694 546.733 147.312 547.875C147.936 549.029 148.559 550.183 149.2 551.372C153.284 558.917 157.453 566.413 161.687 573.875C162.214 574.804 162.74 575.733 163.283 576.69C165.401 580.425 167.521 584.16 169.65 587.89C171.235 590.671 172.806 593.46 174.375 596.25C175.099 597.51 175.099 597.51 175.839 598.796C176.271 599.57 176.703 600.344 177.148 601.141C177.532 601.816 177.915 602.492 178.31 603.188C179 605 179 605 178 608C157.87 608 137.74 608 117 608C105.54 586.226 105.54 586.226 100.59 576.242C99.7823 574.621 99.7823 574.621 98.9584 572.968C97.2827 569.604 95.6098 566.24 93.9375 562.875C91.6989 558.371 89.4576 553.869 87.2148 549.367C86.7045 548.338 86.1942 547.309 85.6684 546.249C84.9662 544.84 84.9662 544.84 84.2497 543.402C83.838 542.573 83.4263 541.744 83.0021 540.891C82.1418 539.044 82.1418 539.044 81 538C72.75 538 64.5 538 56 538C55.67 561.1 55.34 584.2 55 608C36.85 608 18.7 608 -8.10623e-06 608C-0.0225522 580.637 -0.0409856 553.273 -0.0518203 525.91C-0.056984 513.206 -0.0640281 500.501 -0.0754476 487.797C-0.0853921 476.728 -0.0918611 465.66 -0.0940967 454.591C-0.0954042 448.726 -0.0984924 442.862 -0.105738 436.997C-0.112495 431.484 -0.114626 425.971 -0.113116 420.457C-0.113392 418.428 -0.115399 416.398 -0.119214 414.368C-0.124145 411.61 -0.123008 408.851 -0.120263 406.093C-0.123175 405.278 -0.126088 404.464 -0.129089 403.625C-0.110773 396.878 -0.110773 396.878 5.10595 396.866ZM55 445C54.9071 446.412 54.8825 447.829 54.8865 449.244C54.8865 450.145 54.8866 451.046 54.8867 451.974C54.8919 452.953 54.897 453.933 54.9023 454.941C54.9038 455.939 54.9052 456.936 54.9066 457.964C54.9122 461.163 54.9248 464.363 54.9375 467.562C54.9425 469.726 54.9471 471.889 54.9512 474.053C54.9622 479.368 54.979 484.684 55 490C61.7583 490.153 68.5162 490.258 75.2759 490.33C77.5706 490.36 79.8653 490.4 82.1597 490.453C100.169 491.41 100.169 491.41 116 484C121.005 478.201 123.428 472.965 123.27 465.211C122.397 458.056 118.755 453.177 113.488 448.508C106.379 444.2 99.2469 443.567 91.0937 443.672C90.0878 443.674 89.0819 443.676 88.0455 443.678C85.9379 443.684 83.8302 443.698 81.7226 443.719C78.4816 443.75 75.2411 443.76 72 443.766C69.9479 443.775 67.8958 443.785 65.8437 443.797C64.8709 443.801 63.8981 443.805 62.8959 443.81C61.5581 443.824 61.5581 443.824 60.1934 443.839C59.4055 443.846 58.6177 443.852 57.806 443.86C55.9785 443.805 55.9785 443.805 55 445Z" fill="#10345A"/>
<path d="M440 419C440.844 419.665 441.689 420.33 442.559 421.016C462.177 437.464 474.745 462.817 478 488C478.316 492.858 478.382 497.696 478.375 502.563C478.374 503.222 478.373 503.882 478.372 504.561C478.324 515.519 477.505 525.601 474 536C473.646 537.055 473.646 537.055 473.285 538.131C467.331 555.186 457.835 569.387 445 582C444.251 582.748 443.502 583.495 442.73 584.266C422.49 603.342 394.11 612.597 366.598 611.979C335.434 610.703 308.61 597.769 287.25 575.188C266.19 550.733 259.671 521.639 261 490C262.785 467.907 273.111 446.203 288 430C288.447 429.511 288.894 429.021 289.355 428.517C329.123 385.459 394.9 382.823 440 419ZM335 462C334.272 462.601 333.543 463.201 332.793 463.82C323.658 472.006 316.95 484.668 316 497C315.88 498.232 315.88 498.232 315.758 499.488C314.992 514.691 320.593 527.759 330.188 539.188C337.708 547.212 346.551 551.85 357 555C357.601 555.192 358.201 555.384 358.82 555.582C372.198 558.147 386.18 555.51 397.812 548.539C409.953 539.997 419.55 528.222 422.719 513.414C424.595 497.306 421.72 482.534 411.996 469.266C402.602 458.175 389.453 450.782 375 449C360.425 447.909 346.023 452.297 335 462Z" fill="#10335A"/>
<path d="M199.055 396.871C200.671 396.866 200.671 396.866 202.321 396.861C203.494 396.863 204.667 396.865 205.875 396.867C207.07 396.866 208.265 396.865 209.496 396.864C212.028 396.864 214.56 396.865 217.092 396.87C220.983 396.875 224.874 396.87 228.766 396.863C231.219 396.864 233.672 396.865 236.125 396.867C237.298 396.865 238.471 396.863 239.679 396.861C240.757 396.864 241.835 396.867 242.945 396.871C243.899 396.871 244.853 396.872 245.836 396.873C248 397 248 397 249 398C249.098 400.706 249.13 403.386 249.12 406.093C249.121 406.951 249.122 407.809 249.123 408.694C249.124 411.593 249.119 414.492 249.114 417.391C249.113 419.46 249.113 421.529 249.114 423.598C249.114 429.234 249.108 434.87 249.101 440.507C249.095 446.39 249.095 452.273 249.093 458.156C249.09 469.305 249.082 480.453 249.072 491.602C249.061 504.291 249.055 516.98 249.05 529.669C249.04 555.78 249.022 581.89 249 608C230.52 608 212.04 608 193 608C192.977 580.637 192.959 553.273 192.948 525.91C192.943 513.206 192.936 500.501 192.925 487.797C192.915 476.728 192.908 465.66 192.906 454.591C192.905 448.726 192.902 442.862 192.894 436.997C192.888 431.484 192.885 425.971 192.887 420.457C192.887 418.428 192.885 416.398 192.881 414.368C192.876 411.61 192.877 408.851 192.88 406.093C192.877 405.279 192.874 404.464 192.871 403.625C192.888 397.437 192.908 396.876 199.055 396.871Z" fill="#10335A"/>
<path d="M319 88C323.486 89.5198 325.522 93.1344 328.062 96.875C328.928 98.1226 329.794 99.37 330.66 100.617C331.063 101.208 331.465 101.798 331.88 102.406C332.794 103.707 333.786 104.953 334.797 106.18C336.885 109.339 336.185 112.309 336 116C337.348 116.095 337.348 116.095 338.723 116.191C342.84 117.207 343.888 118.603 346.438 121.938C347.578 123.419 347.578 123.419 348.742 124.93C349.487 125.943 350.232 126.956 351 128C351.704 128.951 352.408 129.903 353.133 130.883C358 137.642 358 137.642 358 140C348.266 143.245 337.037 141.289 328 137C327.049 151.581 335.976 164.575 343.75 176.25C352.396 189.279 355.158 203.874 352.281 219.301C350.811 226.192 348.85 232.614 346.125 239.125C344.639 242.859 343.994 244.804 344.125 248.875C347.602 254.669 353.08 257.81 358.707 261.336C359.344 261.736 359.98 262.137 360.636 262.549C361.909 263.343 363.189 264.124 364.478 264.892C366.036 265.85 367.525 266.918 369 268C369 268.99 369 269.98 369 271C361.395 277.797 349.777 280.401 339.855 280.285C331.647 279.465 323.48 276.966 315.543 274.773C304.432 271.788 295.348 271.197 284.816 276.805C282.852 278.013 282.852 278.013 280.918 280.046C277.115 282.592 273.907 282.543 269.488 282.461C268.679 282.46 267.869 282.459 267.035 282.458C265.332 282.452 263.628 282.436 261.925 282.412C259.311 282.375 256.698 282.371 254.084 282.371C252.427 282.361 250.77 282.35 249.113 282.336C247.938 282.333 247.938 282.333 246.74 282.329C241.232 282.232 241.232 282.232 239 280C238.562 277.625 238.562 277.625 239 275C242.76 270.997 247.909 268.88 253 267C253.66 267 254.32 267 255 267C254.954 266.238 254.907 265.476 254.859 264.691C254.542 255.613 256.127 249.452 261.688 242.25C268.855 234.68 276.594 233.232 286.641 232.163C293.736 231.341 299.645 229.717 304.438 224.188C306.302 220.384 307.069 218.272 307 214C305.903 210.947 304.614 208.024 303.281 205.066C300.662 198.798 299.893 192.752 300 186C301.241 185.974 302.483 185.948 303.762 185.922C305.404 185.866 307.046 185.808 308.688 185.75C309.504 185.736 310.321 185.722 311.162 185.707C316.305 185.499 319.334 184.962 323 181C325.525 173.426 323.439 167.712 320.5 160.688C316.789 151.191 315.426 144.368 318.875 134.562C320.421 129.62 319.608 127.19 317.25 122.625C316.391 121.19 316.391 121.19 315.516 119.727C311.753 112.957 312.246 105.01 314.312 97.75C315.477 94.1911 316.838 91.0882 319 88ZM275.625 262.75C275.089 263.493 274.553 264.235 274 265C274.346 267.116 274.346 267.116 275 269C276.336 267.858 277.669 266.711 279 265.562C279.743 264.924 280.485 264.286 281.25 263.629C281.827 263.091 282.405 262.554 283 262C283 261.67 283 261.34 283 261C279.669 260.63 278.373 260.725 275.625 262.75ZM265 272C266.98 272.99 266.98 272.99 269 274C269.66 273.34 270.32 272.68 271 272C269.02 272 267.04 272 265 272Z" fill="#4CA4D2"/>
<path d="M156 88C156.66 88 157.32 88 158 88C158.648 89.2696 159.294 90.5407 159.938 91.8125C160.477 92.874 160.477 92.874 161.027 93.957C164.409 101.06 164.246 111.442 162.176 119.016C160.727 122.269 158.976 125.036 157 128C157.253 130.721 157.795 133.254 158.52 135.887C161.669 147.418 158.589 155.834 153.852 166.613C152.079 171.581 152.476 177.023 153.812 182.062C154.916 184.33 154.916 184.33 158 185C159.407 185.145 160.818 185.246 162.23 185.316C163.033 185.358 163.835 185.4 164.662 185.443C165.495 185.483 166.329 185.522 167.188 185.562C168.455 185.627 168.455 185.627 169.748 185.693C171.832 185.799 173.916 185.9 176 186C176.637 194.992 175.238 203.091 170.863 211.074C169.24 214.695 170.03 218.259 171 222C174.121 227.513 177.842 229.247 183.77 231.207C187.365 232.09 190.884 232.532 194.562 232.938C202.824 233.911 209.538 236.046 215.375 242.188C221.222 249.879 222.65 257.506 222 267C223.237 267.371 223.237 267.371 224.5 267.75C235 271.5 235 271.5 238 276C237.459 280.541 237.459 280.541 236 282C230.676 282.293 225.35 282.314 220.019 282.35C218.223 282.367 216.428 282.394 214.633 282.432C212.043 282.487 209.454 282.509 206.863 282.523C206.066 282.546 205.269 282.569 204.448 282.592C198.562 282.57 196.178 281.12 192 277C182.45 271.333 174.285 271.548 163.707 274.035C158.827 275.305 153.984 276.678 149.156 278.133C136.407 281.636 123.843 280.583 112.25 274C109.766 272.5 109.766 272.5 108 271C108 270.01 108 269.02 108 268C109.573 266.621 109.573 266.621 111.762 265.223C112.551 264.709 113.341 264.195 114.154 263.666C114.99 263.137 115.826 262.608 116.688 262.062C125.494 257.163 125.494 257.163 132 250C132.595 244.648 131.862 241.244 129.688 236.312C123.412 222.014 120.988 204.517 126.039 189.387C128.612 182.997 131.719 177.335 135.619 171.666C143.31 160.487 148.949 149.963 149 136C148.469 136.277 147.938 136.554 147.391 136.84C146.331 137.383 146.331 137.383 145.25 137.938C144.554 138.297 143.858 138.657 143.141 139.027C138.545 141.116 134.483 141.135 129.438 141.125C128.765 141.129 128.093 141.133 127.4 141.137C124.325 141.131 121.94 140.98 119 140C120.617 134.911 123.688 131.071 126.875 126.875C127.67 125.802 127.67 125.802 128.48 124.707C133.696 117.783 133.696 117.783 137 116C138.32 116 139.64 116 141 116C140.776 115.117 140.551 114.234 140.32 113.324C139.506 104.873 149.047 96.2158 154.082 90.0195C154.715 89.3531 155.348 88.6866 156 88ZM194 261C196.65 264.631 199.018 266.899 203 269C202.669 265.938 202.399 264.399 200.188 262.188C197.829 260.682 197.829 260.682 194 261ZM206 272C206.66 272.66 207.32 273.32 208 274C209.32 273.34 210.64 272.68 212 272C210.02 272 208.04 272 206 272Z" fill="#428FBB"/>
<path d="M238 71C240.834 73.8343 242.056 77.3111 243.625 80.9375C243.95 81.6665 244.275 82.3954 244.609 83.1465C247 88.6258 247 88.6258 247 92C245.02 91.34 243.04 90.68 241 90C241 92.31 241 94.62 241 97C241.887 96.9175 242.774 96.835 243.688 96.75C252.74 96.75 261.984 101.106 270 105C271.32 103.02 272.64 101.04 274 99C272.35 98.67 270.7 98.34 269 98C271.777 94.7518 275.391 92.8782 279.062 90.8125C279.7 90.4445 280.337 90.0764 280.994 89.6973C285.743 87 285.743 87 288 87C287.305 94.0927 286.093 101.179 284 108C283.01 108.495 283.01 108.495 282 109C281.01 107.68 280.02 106.36 279 105C278.01 106.65 277.02 108.3 276 110C276.424 110.378 276.848 110.755 277.285 111.145C288.269 121.453 294.858 134.99 296 150C296.136 165.04 292.94 180.619 282.18 191.91C281.625 192.414 281.071 192.918 280.5 193.438C279.263 194.706 279.263 194.706 278 196C277.959 198.814 277.959 198.814 279 201C280.207 200.705 281.413 200.41 282.656 200.105C284.871 199.83 284.871 199.83 287 200C289.391 202.155 290.777 203.709 292.5 206.312C293.161 207.224 293.161 207.224 293.836 208.154C297 212.611 297 212.611 297 215C293.527 216.158 290.639 216.069 287 216C286.01 218.97 285.02 221.94 284 225C278.219 222.11 275.048 217.647 272 212C271.721 208.953 272.233 207.012 273 204C272.34 203.34 271.68 202.68 271 202C269.623 202.723 269.623 202.723 268.219 203.461C259.024 208.224 251.519 211.376 241 211C241.108 213.904 241.108 213.904 242 217C243.253 217.541 243.253 217.541 244.531 218.094C247 220 247 220 247.409 222.016C247.493 224.589 247.435 227.116 247.312 229.688C247.29 230.58 247.267 231.473 247.244 232.393C247.185 234.597 247.103 236.798 247 239C246.454 238.704 245.907 238.408 245.344 238.103C244.626 237.726 243.908 237.349 243.168 236.961C242.457 236.582 241.745 236.204 241.012 235.814C238.926 234.746 238.926 234.746 236.312 235.625C235.549 236.079 234.786 236.532 234 237C232.339 237.682 230.673 238.351 229 239C228.855 235.896 228.766 232.794 228.688 229.688C228.646 228.806 228.604 227.925 228.561 227.018C228.514 224.582 228.515 222.389 229 220C231.469 218.094 231.469 218.094 234 217C234.892 213.904 234.892 213.904 235 211C233.989 211.103 232.979 211.206 231.938 211.312C227.475 211.328 223.505 210.09 219.312 208.688C218.671 208.475 218.03 208.262 217.369 208.042C214.435 207.02 211.87 205.919 209.23 204.27C208.494 203.851 207.758 203.432 207 203C206.01 203.33 205.02 203.66 204 204C204.371 205.237 204.743 206.475 205.125 207.75C205.611 211.609 205.049 212.923 202.91 216.27C200.443 219.366 197.865 222.265 195 225C194.34 225 193.68 225 193 225C192.711 223.721 192.423 222.442 192.125 221.125C191.424 218.87 191.424 218.87 190 217C186.722 215.68 183.511 215.263 180 215C182.887 209.457 186.098 203.997 191 200C194.938 199.5 194.938 199.5 198 200C198.33 199.01 198.66 198.02 199 197C198.515 196.536 198.031 196.072 197.531 195.594C185.807 183.508 180.616 169.039 180.699 152.441C181.072 137.408 186.623 124.855 197.047 114.059C199.151 111.958 199.151 111.958 201 109C199.68 107.68 198.36 106.36 197 105C196.01 106.32 195.02 107.64 194 109C193.349 106.647 192.704 104.293 192.062 101.938C191.88 101.281 191.698 100.624 191.51 99.9473C190.343 95.6412 189.547 91.4284 189 87C193.766 88.3761 197.725 90.4678 201.875 93.125C202.468 93.4975 203.061 93.8701 203.672 94.2539C205.118 95.1636 206.56 96.081 208 97C207.67 97.66 207.34 98.32 207 99C206.01 99.33 205.02 99.66 204 100C205.32 101.65 206.64 103.3 208 105C208.762 104.59 209.524 104.18 210.309 103.758C218.522 99.4716 225.624 96.5192 235 97C235 94.69 235 92.38 235 90C233.02 90.66 231.04 91.32 229 92C230.446 87.451 232.17 83.0659 234.062 78.6875C234.466 77.7391 234.466 77.7391 234.877 76.7715C236.873 72.1268 236.873 72.1268 238 71ZM229.938 107.438C229.204 108.076 228.471 108.714 227.715 109.371C227.149 109.909 226.583 110.446 226 111C226 111.33 226 111.66 226 112C228.97 112 231.94 112 235 112C235 109.36 235 106.72 235 104C233.001 104 231.35 106.199 229.938 107.438ZM241 104C241 106.64 241 109.28 241 112C244.3 112 247.6 112 251 112C247.89 108.712 244.984 106.163 241 104ZM216 108C216.33 108.99 216.66 109.98 217 111C217.99 109.68 218.98 108.36 220 107C217.925 106.851 217.925 106.851 216 108ZM256 107C257.664 109.601 257.664 109.601 260 112C262.669 112.419 262.669 112.419 265 112C262.166 108.746 260.314 107.479 256 107ZM222 117C223.492 119.985 224.913 122.544 226.812 125.25C227.293 125.956 227.774 126.663 228.27 127.391C230.216 129.568 230.216 129.568 235 129C235 125.04 235 121.08 235 117C230.71 117 226.42 117 222 117ZM241 117C241 120.96 241 124.92 241 129C247.928 129.921 247.928 129.921 254.066 127.441C255.53 125.689 256.82 123.952 258 122C257.34 120.35 256.68 118.7 256 117C251.05 117 246.1 117 241 117ZM267 119.062C265.892 122.318 266.025 122.811 267.312 125.812C268.148 127.39 268.148 127.39 269 129C273.29 129 277.58 129 282 129C279.99 123.975 278.031 120.564 274 117C270.387 115.992 269.598 116.383 267 119.062ZM200.562 119.391C200.047 120.004 199.531 120.618 199 121.25C198.484 121.853 197.969 122.457 197.438 123.078C195.732 125.239 195.732 125.239 194 129C198.29 129 202.58 129 207 129C208.531 124.128 208.531 124.128 206.188 120.688C205.466 119.801 204.744 118.914 204 118C201.906 117.768 201.906 117.768 200.562 119.391ZM226.578 133.758C224.833 136.237 224.552 137.275 224.75 140.25C224.874 142.106 224.874 142.106 225 144C224.34 144 223.68 144 223 144C221.171 141.729 219.524 139.357 217.852 136.969C217.241 136.319 216.63 135.669 216 135C214.68 135 213.36 135 212 135C210.533 140.225 209.774 144.581 210 150C212.97 150.33 215.94 150.66 219 151C218.67 152.65 218.34 154.3 218 156C215.36 156 212.72 156 210 156C209.61 163.743 209.61 163.743 212 171C215.099 171.425 217.919 171.619 221 171C222.626 169.31 223.638 167.586 224.805 165.559C226 164 226 164 229.312 163.562C230.199 163.707 231.086 163.851 232 164C231.01 166.31 230.02 168.62 229 171C230.98 171 232.96 171 235 171C235 170.34 235 169.68 235 169C235.66 169 236.32 169 237 169C237.464 170.207 237.464 170.207 237.938 171.438C238.763 173.891 238.763 173.891 240 175C240.466 179.659 240.705 184.327 241 189C245.95 189 250.9 189 256 189C254.677 186.354 253.349 183.805 251.875 181.25C251.256 180.178 250.637 179.105 250 178C250.474 177.629 250.949 177.257 251.438 176.875C253.975 173.83 254.133 170.715 253.832 166.832C253.594 164.883 253.301 162.94 253 161C255.578 163.506 257.955 165.94 260.125 168.812C260.744 169.534 261.363 170.256 262 171C262.99 171 263.98 171 265 171C266.467 165.775 267.226 161.419 267 156C262.71 156 258.42 156 254 156C254.33 154.02 254.66 152.04 255 150C258.96 150 262.92 150 267 150C266.5 142.259 266.5 142.259 264 135C258.469 134.561 258.469 134.561 253.5 136.5C253.005 136.995 252.51 137.49 252 138C251.257 137.381 250.515 136.762 249.75 136.125C245.031 132.479 242.035 131.689 236 131.625C234.783 131.597 233.566 131.568 232.312 131.539C228.957 131.741 228.957 131.741 226.578 133.758ZM191 135C190.526 136.176 190.051 137.351 189.562 138.562C189.296 139.224 189.029 139.885 188.754 140.566C187.711 143.705 187.711 143.705 187 150C192.28 150 197.56 150 203 150C203.66 145.05 204.32 140.1 205 135C200.38 135 195.76 135 191 135ZM271 135C271.309 137.289 271.619 139.579 271.938 141.938C272.112 143.225 272.286 144.513 272.465 145.84C272.662 148.855 272.662 148.855 274 150C276.53 150.073 279.033 150.092 281.562 150.062C282.273 150.058 282.984 150.053 283.717 150.049C285.478 150.037 287.239 150.019 289 150C288.884 148.624 288.757 147.249 288.625 145.875C288.555 145.109 288.486 144.344 288.414 143.555C287.968 140.369 287.968 140.369 286 135C281.05 135 276.1 135 271 135ZM187 156C187.309 158.104 187.619 160.207 187.938 162.375C188.112 163.558 188.286 164.742 188.465 165.961C188.835 168.907 188.835 168.907 190 171C194.95 171 199.9 171 205 171C204.34 166.05 203.68 161.1 203 156C197.72 156 192.44 156 187 156ZM274 156C273.67 157.918 273.34 159.836 273 161.812C272.814 162.891 272.629 163.97 272.438 165.082C271.926 168.003 271.926 168.003 272 171C276.95 171 281.9 171 287 171C287.33 169.824 287.66 168.649 288 167.438C288.186 166.776 288.371 166.115 288.562 165.434C289.206 162.264 289.206 162.264 289 156C284.05 156 279.1 156 274 156ZM193 177C195.962 183.786 195.962 183.786 201 189C204.085 189.584 204.085 189.584 207 189C209.274 186.282 209.274 186.282 208.758 183.738C208.549 182.938 208.34 182.137 208.125 181.312C207.754 179.889 207.382 178.466 207 177C202.38 177 197.76 177 193 177ZM218.828 181.98C217.606 184.43 217.606 184.43 219 189C224.28 189 229.56 189 235 189C235 185.04 235 181.08 235 177C225.581 176.162 225.581 176.162 218.828 181.98ZM270 177C268.561 180.8 268.561 180.8 270.215 183.141C271.068 184.185 271.068 184.185 271.938 185.25C272.503 185.956 273.069 186.663 273.652 187.391C274.097 187.922 274.542 188.453 275 189C278.277 185.9 280.931 183.029 283 179C283 178.34 283 177.68 283 177C278.71 177 274.42 177 270 177ZM210 195C210 195.66 210 196.32 210 197C211.093 197.681 212.186 198.361 213.312 199.062C213.927 199.445 214.542 199.828 215.176 200.223C217.171 201.311 217.171 201.311 220 200C218.404 197.378 218.404 197.378 216 195C212.832 194.582 212.832 194.582 210 195ZM225 195C226.856 198.711 227.382 199.599 230.562 201.75C231.183 202.178 231.803 202.606 232.441 203.047C233.838 204.087 233.838 204.087 235 204C235 201.03 235 198.06 235 195C231.7 195 228.4 195 225 195ZM241 195C241 197.97 241 200.94 241 204C244.161 202.419 246.161 201.189 248.75 198.938C249.364 198.41 249.977 197.883 250.609 197.34C251.068 196.898 251.527 196.456 252 196C252 195.67 252 195.34 252 195C248.37 195 244.74 195 241 195ZM261 195C259.642 196.646 258.307 198.313 257 200C257.99 200.495 257.99 200.495 259 201C261.117 200.108 261.117 200.108 263 199C262.67 197.68 262.34 196.36 262 195C261.67 195 261.34 195 261 195Z" fill="#4698C5"/>
<path d="M224 12C233.24 12 242.48 12 252 12C252 13.65 252 15.3 252 17C254.64 17.33 257.28 17.66 260 18C260.33 16.35 260.66 14.7 261 13C267.064 13.605 272.655 14.8633 278.5 16.5625C279.322 16.7965 280.145 17.0304 280.992 17.2715C282.996 17.8424 284.998 18.4205 287 19C286.67 20.98 286.34 22.96 286 25C286.763 25.1444 287.526 25.2887 288.312 25.4375C291 26 291 26 294 27C294.33 25.68 294.66 24.36 295 23C299.86 23.6075 303.741 25.7276 308 28C307.474 31.7868 306.886 34.3936 304 37C301.298 37.6408 298.79 37.817 296 38C295.732 38.6806 295.464 39.3612 295.188 40.0625C293.839 43.3971 292.425 46.6974 291 50C292.32 50.99 293.64 51.98 295 53C294.01 55.97 294.01 55.97 293 59C291.666 58.6056 290.333 58.2093 289 57.8125C288.077 57.5405 287.154 57.2685 286.203 56.9883C283.971 56.2995 281.752 55.5639 279.547 54.793C250.339 44.7049 216.065 45.1805 187.812 58.3984C186 59 186 59 183 58C181.812 55.4375 181.812 55.4375 181 53C182.65 52.34 184.3 51.68 186 51C184.275 46.8118 182.494 42.7903 180 39C176.481 38.1757 176.481 38.1757 173 38C170.492 35.2085 168 31.849 168 28C169.768 27.1597 171.539 26.328 173.312 25.5C174.299 25.0359 175.285 24.5719 176.301 24.0938C179 23 179 23 182 23C182.33 23.99 182.66 24.98 183 26C186.465 25.505 186.465 25.505 190 25C189.67 23.02 189.34 21.04 189 19C192.748 17.992 196.499 16.995 200.25 16C201.313 15.7138 202.377 15.4277 203.473 15.1328C204.497 14.8621 205.522 14.5914 206.578 14.3125C207.521 14.0611 208.463 13.8098 209.435 13.5508C212 13 212 13 216 13C216.495 14.98 216.495 14.98 217 17C219.64 17 222.28 17 225 17C224.505 14.525 224.505 14.525 224 12ZM233.766 23.043C231.561 26.7358 231.59 29.0453 231.75 33.3125C231.786 34.5668 231.822 35.821 231.859 37.1133C231.906 38.0659 231.952 39.0185 232 40C235.96 40 239.92 40 244 40C244.108 37.5821 244.187 35.1691 244.25 32.75C244.284 32.0681 244.317 31.3862 244.352 30.6836C244.418 27.2541 244.244 25.3427 242.234 22.5156C238.81 20.1931 236.812 20.2573 233.766 23.043ZM201.812 26.0625C199.71 27.9388 199.71 27.9388 199.562 31.0625C200.105 35.9451 201.431 40.359 203 45C204.459 44.6908 205.917 44.3775 207.375 44.0625C208.187 43.8885 208.999 43.7145 209.836 43.5352C212.029 43.0767 212.029 43.0767 214 42C213.505 36.3597 212.622 32.0414 210 27C206.656 24.7706 205.438 24.3014 201.812 26.0625ZM265 28C263.876 30.6028 263.876 30.6028 263.25 33.5C263.008 34.4591 262.765 35.4181 262.516 36.4062C261.903 39.0497 261.903 39.0497 262 42C265.63 42.99 269.26 43.98 273 45C276.503 36.6959 276.503 36.6959 275.875 28.25C274.171 25.8479 274.171 25.8479 271.562 25C268.273 25 267.369 25.759 265 28Z" fill="#4699C5"/>
<path d="M351 54C351.99 54.33 352.98 54.66 354 55C354.207 60.789 353.592 65.4293 352 71C353.32 71.33 354.64 71.66 356 72C355.521 76.2191 354.834 78.7966 352 82C352.99 82.66 353.98 83.32 355 84C355.577 83.01 356.155 82.02 356.75 81C357.493 80.01 358.235 79.02 359 78C360.32 78 361.64 78 363 78C363.495 79.98 363.495 79.98 364 82C364.459 81.5901 364.918 81.1802 365.391 80.7578C366.004 80.219 366.618 79.6802 367.25 79.125C367.853 78.5913 368.457 78.0577 369.078 77.5078C372.743 74.6327 375.336 73.7409 380 74C379.73 79.3977 377.591 82.243 374.277 86.2656C372.802 87.9094 372.802 87.9094 373 90C373.99 90.495 373.99 90.495 375 91C374.875 93.25 374.875 93.25 374 96C372.025 97.3703 370.026 98.7067 368 100C368 100.99 368 101.98 368 103C365.69 103.99 363.38 104.98 361 106C363.947 107.158 363.947 107.158 367 107C367.33 107.66 367.66 108.32 368 109C368.99 108.34 369.98 107.68 371 107C374.188 106.875 374.188 106.875 377 107C377 107.99 377 108.98 377 110C380.63 110.99 384.26 111.98 388 113C387.67 114.32 387.34 115.64 387 117C384.715 118.266 384.715 118.266 381.938 119.25C381.018 119.585 380.099 119.92 379.152 120.266C378.442 120.508 377.732 120.75 377 121C377 123.31 377 125.62 377 128C380.63 128.99 384.26 129.98 388 131C388 131.99 388 132.98 388 134C385.03 134.99 382.06 135.98 379 137C379 137.99 379 138.98 379 140C376.03 139.67 373.06 139.34 370 139C370 139.66 370 140.32 370 141C364.03 140.709 361.105 137.972 357 134C357.33 132.35 357.66 130.7 358 129C356.907 128.423 355.814 127.845 354.688 127.25C351.711 125.533 349.613 124.132 348 121C347.54 117.224 347.828 116.258 350 113C348.082 113.031 348.082 113.031 346.125 113.062C342.25 113.125 342.25 113.125 340 112C340.33 109.03 340.66 106.06 341 103C339.02 103 337.04 103 335 103C334.35 101.585 333.705 100.168 333.062 98.75C332.703 97.9611 332.343 97.1722 331.973 96.3594C331 94 331 94 330.543 91.7617C330.364 91.1804 330.185 90.599 330 90C328.005 89.3197 326.004 88.6551 324 88C321.062 85.6875 321.062 85.6875 319 83C319.312 80.375 319.312 80.375 320 78C319.34 77.01 318.68 76.02 318 75C317.875 71.8125 317.875 71.8125 318 69C318.99 69 319.98 69 321 69C320.988 68.3013 320.977 67.6027 320.965 66.8828C320.956 65.9727 320.947 65.0627 320.938 64.125C320.926 63.2201 320.914 62.3152 320.902 61.3828C321 59 321 59 322 57C322.99 57 323.98 57 325 57C326.32 59.97 327.64 62.94 329 66C329.99 65.67 330.98 65.34 332 65C332.103 66.1137 332.206 67.2275 332.312 68.375C332.539 69.5712 332.766 70.7675 333 72C333.99 72.66 334.98 73.32 336 74C336.037 73.3735 336.075 72.747 336.113 72.1016C336.179 71.2843 336.245 70.467 336.312 69.625C336.371 68.8129 336.429 68.0008 336.488 67.1641C337 65 337 65 340 63C340.99 63.66 341.98 64.32 343 65C343.41 64.3735 343.82 63.747 344.242 63.1016C344.781 62.2843 345.32 61.467 345.875 60.625C346.409 59.8129 346.942 59.0008 347.492 58.1641C349 56 349 56 351 54ZM333 83C332.67 83.66 332.34 84.32 332 85C332.66 85 333.32 85 334 85C333.67 84.34 333.34 83.68 333 83ZM368 124C368.33 124.99 368.66 125.98 369 127C369.99 126.01 370.98 125.02 372 124C370.68 124 369.36 124 368 124ZM360 125C361 127 361 127 361 127L360 125Z" fill="#479AC7"/>
<path d="M154 54C158.037 57.5265 159.044 61.8551 160 67C160.327 75.0469 157.601 80.838 153.438 87.5C152.963 87.995 152.489 88.49 152 89C151.01 89 150.02 89 149 89C147.68 91.64 146.36 94.28 145 97C144.01 97 143.02 97 142 97C141.01 100.3 140.02 103.6 139 107C138.34 107 137.68 107 137 107C137.495 109.97 137.495 109.97 138 113C136.948 113.206 135.896 113.412 134.812 113.625C130.285 114.92 128.588 117.119 126 121C125.853 121.807 125.706 122.614 125.555 123.445C124.422 128.662 120.252 132.454 115.957 135.402C109.798 138.555 103.789 138.414 97 138C96.67 137.01 96.34 136.02 96 135C98.1996 131.171 100.658 127.897 104 125C104.66 125 105.32 125 106 125C106 124.34 106 123.68 106 123C105.01 122.938 104.02 122.876 103 122.812C98.4714 122.164 94.3063 120.186 91 117C91 115.68 91 114.36 91 113C97.5634 109.341 103.549 107.062 111 106C110.613 105.599 110.227 105.198 109.828 104.785C105.257 99.7957 101 94.0029 101 87C108.728 86.6819 114.939 86.6773 122 90C121.838 89.4741 121.675 88.9481 121.508 88.4062C120.872 85.3958 120.868 82.5758 120.875 79.5C120.872 78.3759 120.87 77.2519 120.867 76.0938C120.977 73.5279 121.247 71.4373 122 69C126.401 69.503 128.712 71.0877 132 74C132.277 73.157 132.554 72.3139 132.84 71.4453C133.202 70.3496 133.564 69.2539 133.938 68.125C134.477 66.4892 134.477 66.4892 135.027 64.8203C136 62 136 62 137 60C140.24 60.3471 140.98 60.9761 143.141 63.5508C143.754 64.359 144.368 65.1673 145 66C145.723 64.8263 145.723 64.8263 146.461 63.6289C147.093 62.617 147.724 61.6051 148.375 60.5625C149.001 59.5532 149.628 58.5438 150.273 57.5039C152 55 152 55 154 54Z" fill="#479BC7"/>
<path d="M0 662C157.74 662 315.48 662 478 662C478 663.65 478 665.3 478 667C320.26 667 162.52 667 0 667C0 665.35 0 663.7 0 662Z" fill="#10345A"/>
<path d="M286.324 61.0481C289.389 62.1384 291.927 62.3181 295.176 62.4141C296.333 62.4527 297.49 62.4914 298.682 62.5313C300.479 62.5777 300.479 62.5777 302.312 62.625C303.53 62.6637 304.748 62.7024 306.002 62.7422C309.001 62.8363 312 62.9219 315 63C315.075 67.071 315.129 71.1417 315.165 75.2132C315.18 76.5931 315.2 77.973 315.226 79.3528C315.373 87.2577 315.03 94.1525 312.652 101.71C311.807 104.677 311.825 107.199 312.188 110.25C312.296 111.252 312.404 112.253 312.516 113.285C312.949 116.221 312.949 116.221 314.438 119.688C315.125 123.735 314.376 124.582 312.188 127.938C310.48 130.277 310.48 130.277 309 132C308.67 132 308.34 132 308 132C308 111.21 308 90.42 308 69C261.8 69 215.6 69 168 69C168 89.46 168 109.92 168 131C163.462 126.462 163.462 126.462 162 123C162.438 121.182 162.892 119.366 163.441 117.578C164.805 111.285 165.209 103.327 162.996 97.2363C161.858 93.5393 161.773 90.4965 161.805 86.6328C161.808 85.9532 161.81 85.2737 161.813 84.5735C161.824 82.4238 161.849 80.2746 161.875 78.125C161.885 76.6589 161.894 75.1927 161.902 73.7266C161.924 70.1509 161.959 66.5755 162 63C162.971 63.0096 162.971 63.0096 163.962 63.0193C176.97 63.0572 188.298 62.1779 200.541 57.6655C227.241 47.8355 260.314 49.3166 286.324 61.0481ZM208 62C208 62.33 208 62.66 208 63C227.8 63 247.6 63 268 63C258.847 58.4233 248.3 58.6433 238.25 58.6875C236.42 58.6894 236.42 58.6894 234.554 58.6914C225.398 58.7886 216.865 59.6875 208 62Z" fill="#4597C4"/>
<path d="M0 970C157.74 970 315.48 970 478 970C478 971.32 478 972.64 478 974C320.26 974 162.52 974 0 974C0 972.68 0 971.36 0 970Z" fill="#11345A"/>
<path d="M0 823C157.74 823 315.48 823 478 823C478 824.32 478 825.64 478 827C320.26 827 162.52 827 0 827C0 825.68 0 824.36 0 823Z" fill="#11345A"/>
<path d="M51 323C54.4444 322.938 57.8888 322.876 61.4375 322.813C62.5041 322.785 63.5707 322.758 64.6697 322.73C70.8465 322.677 76.4011 323.211 82 326C86.5948 330.71 87.3391 334.066 87.293 340.453C86.7631 345.059 84.1657 347.834 81 351C81.758 352.048 81.758 352.048 82.5312 353.117C83.1809 354.027 83.8306 354.937 84.5 355.875C85.4745 357.232 85.4745 357.232 86.4688 358.617C88 361 88 361 88 363C76.5695 364.221 76.5695 364.221 72.8008 361.289C69 356.191 69 356.191 69 353C67.02 353 65.04 353 63 353C63 356.3 63 359.6 63 363C59.04 363 55.08 363 51 363C51 349.8 51 336.6 51 323ZM63 333C63 336.3 63 339.6 63 343C64.4231 343.062 65.8463 343.124 67.3125 343.188C68.113 343.222 68.9135 343.257 69.7383 343.293C72.0684 343.18 72.0684 343.18 73.8047 341.648C75.2761 339.992 75.2761 339.992 74.8125 337.438C74.1537 334.856 74.1537 334.856 72 333C68.9817 332.728 66.0363 332.913 63 333Z" fill="#10335A"/>
<path d="M376 323C379.465 322.938 382.93 322.876 386.5 322.813C388.114 322.772 388.114 322.772 389.76 322.73C397.282 322.665 403.022 323.466 408.938 328.5C411.977 332.185 412.288 335.215 412.219 339.934C411.88 343.132 410.769 345.346 409 348C406.891 349.164 406.891 349.164 405 350C405.577 350.855 406.155 351.709 406.75 352.59C407.5 353.706 408.25 354.822 409 355.938C409.382 356.501 409.763 357.065 410.156 357.647C413 361.887 413 361.887 413 363C408.549 363.542 404.43 363.788 400 363C397.576 360.876 396.166 358.85 394.562 356.066C393.133 353.749 393.133 353.749 390.312 353.215C389.549 353.144 388.786 353.073 388 353C388 356.3 388 359.6 388 363C384.04 363 380.08 363 376 363C376 349.8 376 336.6 376 323ZM388 333C388 336.3 388 339.6 388 343C389.423 343.062 390.846 343.124 392.312 343.188C393.113 343.222 393.914 343.257 394.738 343.293C397.068 343.18 397.068 343.18 398.801 341.648C400.268 339.994 400.268 339.994 399.875 337.438C399.156 334.674 399.156 334.674 396 333C393.943 332.759 393.943 332.759 391.812 332.875C390.554 332.916 389.296 332.958 388 333Z" fill="#11335A"/>
<path d="M103 323C113.56 323 124.12 323 135 323C135 326.3 135 329.6 135 333C128.4 333 121.8 333 115 333C115 334.65 115 336.3 115 338C120.61 338 126.22 338 132 338C132 341.3 132 344.6 132 348C126.39 348 120.78 348 115 348C115 349.98 115 351.96 115 354C121.6 354 128.2 354 135 354C135 356.97 135 359.94 135 363C124.44 363 113.88 363 103 363C103 349.8 103 336.6 103 323Z" fill="#10345A"/>
<path d="M198 323C208.23 323 218.46 323 229 323C229 326.3 229 329.6 229 333C222.73 333 216.46 333 210 333C210 334.65 210 336.3 210 338C215.61 338 221.22 338 227 338C227 341.3 227 344.6 227 348C221.39 348 215.78 348 210 348C210 349.98 210 351.96 210 354C216.6 354 223.2 354 230 354C230 356.97 230 359.94 230 363C219.44 363 208.88 363 198 363C198 349.8 198 336.6 198 323Z" fill="#10345A"/>
<path d="M321 323C324.96 323 328.92 323 333 323C333.049 324.758 333.098 326.517 333.148 328.328C333.223 330.635 333.299 332.943 333.375 335.25C333.406 336.409 333.437 337.568 333.469 338.762C333.507 339.877 333.546 340.992 333.586 342.141C333.617 343.167 333.649 344.193 333.681 345.251C334.002 348.015 334.431 349.712 336 352C338.917 353 338.917 353 342 353C345.248 351.278 345.248 351.278 346 348C346.149 346.082 346.248 344.161 346.316 342.238C346.358 341.12 346.4 340.002 346.443 338.85C346.483 337.682 346.522 336.515 346.562 335.312C346.606 334.134 346.649 332.955 346.693 331.74C346.799 328.827 346.9 325.913 347 323C350.96 323 354.92 323 359 323C359.081 326.98 359.141 330.957 359.187 334.938C359.213 336.054 359.238 337.171 359.264 338.322C359.335 346.443 358.833 353.402 353.687 359.938C347.972 364.324 341.985 364.71 335 364C329.777 362.373 326.458 360.248 323 356C321.252 351.707 320.761 348.125 320.805 343.508C320.811 342.309 320.818 341.11 320.824 339.875C320.841 338.638 320.858 337.4 320.875 336.125C320.884 334.864 320.893 333.604 320.902 332.305C320.926 329.203 320.962 326.101 321 323Z" fill="#10345A"/>
<path d="M440 323C443.96 323 447.92 323 452 323C456.196 331.261 460.144 339.582 463.875 348.062C464.373 349.176 464.87 350.289 465.383 351.436C465.852 352.5 466.321 353.564 466.805 354.66C467.439 356.093 467.439 356.093 468.085 357.555C469 360 469 360 469 363C465.04 363 461.08 363 457 363C456.511 361.542 456.511 361.542 456.012 360.055C454.241 356.587 454.241 356.587 450.207 356.195C448.743 356.142 447.278 356.12 445.812 356.125C445.063 356.104 444.313 356.084 443.541 356.062C441.694 356.015 439.847 356.004 438 356C437.34 358.31 436.68 360.62 436 363C431.71 363 427.42 363 423 363C426.477 353.742 430.254 344.707 434.312 335.688C434.868 334.446 435.423 333.205 435.979 331.963C437.316 328.974 438.658 325.987 440 323ZM446 337C443.641 341.264 443.641 341.264 443 346C445.31 346 447.62 346 450 346C449.01 343.03 448.02 340.06 447 337C446.67 337 446.34 337 446 337Z" fill="#10345A"/>
<path d="M0 323C3.465 322.938 6.93 322.876 10.5 322.813C12.1136 322.772 12.1136 322.772 13.7598 322.73C21.2824 322.665 27.0222 323.466 32.9375 328.5C35.9775 332.185 36.2976 335.221 36.2109 339.941C35.8766 343.205 34.8388 345.303 33 348C27.8429 351.975 24.2428 353.132 17.8125 353.063C16.1825 353.049 16.1825 353.049 14.5195 353.035C13.6881 353.024 12.8566 353.012 12 353C12 356.3 12 359.6 12 363C8.04 363 4.08 363 0 363C0 349.8 0 336.6 0 323ZM12 333C12 336.3 12 339.6 12 343C13.4231 343.062 14.8463 343.124 16.3125 343.188C17.113 343.222 17.9135 343.257 18.7383 343.293C21.0681 343.18 21.0681 343.18 22.8008 341.648C24.2681 339.994 24.2681 339.994 23.875 337.438C23.1561 334.674 23.1561 334.674 20 333C17.9429 332.759 17.9429 332.759 15.8125 332.875C14.5544 332.916 13.2962 332.958 12 333Z" fill="#11335A"/>
<path d="M244.422 133.621C248.798 135.472 251.212 137.979 253.264 142.343C254.713 147.575 254.071 152.962 253.612 158.311C253.436 160.39 253.301 162.469 253.17 164.551C252.605 172.062 252.605 172.062 252 175C248.959 177.028 247.554 177.538 243.969 176.945C240.279 175.174 238.227 171.704 235.895 168.445C232.835 164.496 230.285 162.783 225.375 161.937C221.211 161.211 221.211 161.211 219 159C219.129 151.262 221.621 148.379 227 143C226.67 142.67 226.34 142.34 226 142C225.688 139.125 225.688 139.125 226 136C230.823 131.154 238.211 132.028 244.422 133.621ZM234 150C233.5 153 233.5 153 234 156C236.692 158.264 236.692 158.264 239.062 157.75C241.195 157.075 241.195 157.075 243 155C242.67 151.703 242.377 150.377 240 148C236.815 147.723 236.815 147.723 234 150Z" fill="#499FCC"/>
<path d="M137 141C138.875 141.625 138.875 141.625 141 143C143.039 147.384 143.558 151.215 143 156C139.771 164.677 134.533 173.355 126.375 178.062C120.456 180.695 114.366 180.82 108 180C105.617 178.973 105.617 178.973 104 178C107.151 170.265 113.833 167.271 121 164C120.113 163.484 119.226 162.969 118.312 162.438C113.179 158.979 110.201 154.544 108.688 148.562C108.461 147.387 108.234 146.211 108 145C116.486 144.461 122.197 146.206 129.062 151.25C129.702 151.827 130.341 152.405 131 153C131.266 152.301 131.531 151.603 131.805 150.883C132.158 149.973 132.511 149.063 132.875 148.125C133.223 147.22 133.571 146.315 133.93 145.383C135 143 135 143 137 141Z" fill="#479BC7"/>
<path d="M151 323C161.56 323 172.12 323 183 323C183 326.3 183 329.6 183 333C176.4 333 169.8 333 163 333C163 335.31 163 337.62 163 340C168.61 340 174.22 340 180 340C180 343.3 180 346.6 180 350C174.39 350 168.78 350 163 350C163 354.29 163 358.58 163 363C159.04 363 155.08 363 151 363C151 349.8 151 336.6 151 323Z" fill="#10345A"/>
<path d="M355 141C356.937 141.375 356.937 141.375 359 142C359.33 142.66 359.66 143.32 360 144C360.536 143.67 361.072 143.34 361.625 143C364.539 141.773 366.869 141.858 370 142C369.631 145.317 369.318 146.692 366.875 149.062C366.256 149.702 365.637 150.341 365 151C365.136 153.219 365.136 153.219 366 155C363 157 363 157 360 157C359.67 158.32 359.34 159.64 359 161C358.01 161 357.02 161 356 161C356.639 161.577 357.279 162.155 357.937 162.75C360.043 165.047 360.412 166.059 361 169C361.66 169.66 362.32 170.32 363 171C363 171.99 363 172.98 363 174C362.01 174 361.02 174 360 174C360.33 174.701 360.66 175.402 361 176.125C362.09 179.26 362.153 181.706 362 185C359.058 184.58 358.088 184.093 356 181.875C355.34 181.256 354.68 180.637 354 180C351.837 180.228 351.837 180.228 350 181C349 180 349 180 348.937 177.438C348.958 176.633 348.979 175.829 349 175C347.68 174.67 346.36 174.34 345 174C345 172.68 345 171.36 345 170C344.34 170 343.68 170 343 170C343 167.69 343 165.38 343 163C342.01 162.67 341.02 162.34 340 162C339.67 161.01 339.34 160.02 339 159C338.154 158.505 337.309 158.01 336.437 157.5C335.633 157.005 334.829 156.51 334 156C334 155.01 334 154.02 334 153C334.66 153 335.32 153 336 153C335.505 152.196 335.505 152.196 335 151.375C333.773 148.461 333.858 146.131 334 143C336.661 143.493 338.131 144.093 340.375 145.688C342.995 147.351 342.995 147.351 346.062 146.25C347.517 145.631 347.517 145.631 349 145C349.742 144.856 350.485 144.711 351.25 144.562C353.402 144.071 353.402 144.071 355 141Z" fill="#4699C5"/>
<path d="M282 721C284.31 721 286.62 721 289 721C289 736.84 289 752.68 289 769C286 769 283 769 280 769C278.515 769.495 278.515 769.495 277 770C272.471 770.399 268.363 770.563 264.125 768.812C260.317 765.564 257.191 762.268 256.762 757.172C256.517 745.868 256.517 745.868 261 741C261.516 740.402 262.031 739.804 262.563 739.188C265.422 736.826 268.395 736.839 271.938 736.812C272.792 736.798 273.647 736.784 274.527 736.77C277 737 277 737 281 739C281.33 733.06 281.66 727.12 282 721ZM269.25 744.062C266.64 746.31 265.286 747.786 264 751C263.795 755.109 264.338 758.078 266.75 761.438C269.367 763.255 270.805 763.924 274 764C277.127 762.835 279.294 761.898 281.375 759.25C282.566 754.962 282.511 751.352 280.938 747.188C277.643 743.468 273.935 742.252 269.25 744.062Z" fill="#10335A"/>
<path d="M272 323C283.88 323 295.76 323 308 323C308 326.3 308 329.6 308 333C304.04 333 300.08 333 296 333C296 342.9 296 352.8 296 363C292.04 363 288.08 363 284 363C284 353.1 284 343.2 284 333C280.04 333 276.08 333 272 333C272 329.7 272 326.4 272 323Z" fill="#10345A"/>
<path d="M206 880C224 880 224 880 230 885C231.338 889.684 231.231 892.669 229 897C229.825 897.639 230.65 898.279 231.5 898.938C234.458 902.561 234.683 904.313 234.434 908.844C233.793 912.03 232.334 913.803 230 916C227.495 917.252 225.791 917.114 222.992 917.098C222.104 917.095 221.216 917.093 220.3 917.09C219.17 917.081 218.04 917.072 216.875 917.062C211.492 917.032 211.492 917.032 206 917C206 904.79 206 892.58 206 880ZM213 886C213 888.97 213 891.94 213 895C218.263 895.447 218.263 895.447 223.062 893.812C224.226 891.95 224.226 891.95 223.812 889.375C223.254 886.834 223.254 886.834 221 886C219.627 885.931 218.25 885.915 216.875 885.938C214.957 885.968 214.957 885.968 213 886ZM213 901C213 904.3 213 907.6 213 911C214.936 911.135 216.874 911.232 218.812 911.312C220.431 911.4 220.431 911.4 222.082 911.488C225.222 911.308 225.222 911.308 226.887 908.48C227.254 907.662 227.621 906.843 228 906C226.944 903.404 226.944 903.404 225 901C222.036 900.395 222.036 900.395 218.812 900.688C217.726 900.733 216.639 900.778 215.52 900.824C214.688 900.882 213.857 900.94 213 901Z" fill="#183156"/>
<path d="M161 124C168.521 132.356 172.521 142.919 172.332 154.109C171.778 158.933 170.298 163.494 168.957 168.148C167.569 173.733 167.193 179.264 167 185C162.048 185.291 158.898 185.23 155 182C152.675 178.406 152.759 175.02 153.309 170.84C154.204 167.162 155.64 163.747 157.062 160.25C161.17 149.955 161.097 141.554 157.402 131.102C157 129 157 129 158.812 125.875C159.534 125.256 160.256 124.637 161 124Z" fill="#53B3E3"/>
<path d="M173 726C176.033 727.327 177.552 728.661 180 731C180.33 731.99 180.66 732.98 181 734C179.02 735.32 177.04 736.64 175 738C174.443 737.361 173.886 736.721 173.312 736.062C170.743 733.77 169.391 733.261 166 733C165.01 733.33 164.02 733.66 163 734C162.67 735.65 162.34 737.3 162 739C162.485 739.303 162.969 739.606 163.469 739.918C164.88 740.8 166.29 741.684 167.699 742.57C169.192 743.498 170.694 744.41 172.207 745.305C173.249 745.927 173.249 745.927 174.312 746.562C174.948 746.935 175.584 747.308 176.238 747.691C179.143 749.849 180.783 751.8 181.434 755.402C181.44 759.635 181.421 762.278 179.25 766C174.397 770.314 170.258 770.428 163.914 770.32C160.013 769.891 157.898 768.608 155 766C153.824 764.948 153.824 764.948 152.625 763.875C151 762 151 762 151 760C153 758.375 153 758.375 155 757C157.204 758.023 159.038 759.031 160.938 760.562C163.413 762.288 164.982 762.853 168 763C170.783 761.665 170.783 761.665 173 760C173.03 757.622 173.03 757.622 172 755C169.716 753.44 167.642 752.214 165.188 751C160.516 748.648 156.85 746.541 154 742C153.05 738.232 153.128 734.548 155.059 731.121C160.067 724.953 165.473 725.126 173 726Z" fill="#10335A"/>
<path d="M315 124C316.65 125.65 318.3 127.3 320 129C319.7 129.895 319.399 130.789 319.09 131.711C315.355 143.586 315.71 151.05 320.828 162.472C323.053 167.542 324.619 172.677 323.582 178.242C322.419 180.711 321.374 182.693 319.25 184.438C316.155 185.211 313.179 185.033 310 185C309.89 183.973 309.781 182.945 309.668 181.887C308.621 172.486 308.621 172.486 306.375 163.312C303.097 152.01 304.917 142.441 310 132C311.553 129.214 313.192 126.634 315 124Z" fill="#387CA5"/>
<path d="M318 737C322.43 739.136 325.196 741.39 327 746C327 749.3 327 752.6 327 756C319.41 756 311.82 756 304 756C306.604 761.043 306.604 761.043 311 763C315.336 762.911 319.268 762.332 323 760C324.563 761.813 324.563 761.813 326 764C325 767 325 767 322.625 768.688C316.565 770.882 310.659 770.919 304.563 768.813C299.799 765.443 297.21 761.719 296 756C295.902 749.973 296.984 745.668 301 741C306.112 736.262 311.349 736.02 318 737ZM305 747C305 747.99 305 748.98 305 750C309.95 750 314.9 750 320 750C318.524 744.94 318.524 744.94 315 743C310.395 742.273 308.23 743.77 305 747Z" fill="#10335A"/>
<path d="M240 880C242.31 880 244.62 880 247 880C247 884.62 247 889.24 247 894C252.94 894 258.88 894 265 894C265 889.38 265 884.76 265 880C266.98 880 268.96 880 271 880C271 892.21 271 904.42 271 917C269.02 917 267.04 917 265 917C265 911.72 265 906.44 265 901C259.06 901 253.12 901 247 901C247 906.28 247 911.56 247 917C244.69 917 242.38 917 240 917C240 904.79 240 892.58 240 880Z" fill="#183257"/>
<path d="M207 737C210.725 739.086 212.421 741.099 214 745C214.227 747.657 214.227 747.657 214.195 750.641C214.189 751.711 214.182 752.78 214.176 753.883C214.159 754.994 214.142 756.105 214.125 757.25C214.116 758.377 214.107 759.503 214.098 760.664C214.074 763.443 214.041 766.221 214 769C213.374 768.988 212.747 768.977 212.102 768.965C210.876 768.951 210.876 768.951 209.625 768.937C208.407 768.92 208.407 768.92 207.164 768.902C204.951 768.855 204.951 768.855 203 770C201.211 770.122 199.418 770.175 197.625 770.187C196.669 770.202 195.712 770.216 194.727 770.23C191.907 769.992 190.345 769.555 188 768C185.555 764.332 185.278 761.265 186 757C187.87 754.569 189.281 753.359 192 752C194.552 751.928 197.075 751.907 199.625 751.937C200.685 751.944 200.685 751.944 201.766 751.951C203.51 751.963 205.255 751.981 207 752C206.143 749.382 205.457 747.293 204 745C201.205 743.576 201.205 743.576 198 744C194.652 745.814 194.652 745.814 192 748C190.063 747.187 190.063 747.187 188 746C187.67 745.01 187.34 744.02 187 743C193.14 736.528 198.3 736.142 207 737ZM194.145 758.512C193.767 759.003 193.389 759.494 193 760C194.181 763.073 194.181 763.073 196.813 764.875C199.786 765.045 201.405 764.464 204 763C206.143 760.263 206.143 760.263 207 757C205.23 756.919 203.459 756.861 201.688 756.812C200.701 756.778 199.715 756.743 198.699 756.707C195.954 756.757 195.954 756.757 194.145 758.512Z" fill="#10335A"/>
<path d="M167 880C169.31 880 171.62 880 174 880C174.015 880.802 174.029 881.604 174.044 882.431C174.119 886.059 174.215 889.685 174.313 893.312C174.335 894.575 174.358 895.838 174.381 897.139C174.416 898.347 174.452 899.556 174.488 900.801C174.514 901.916 174.541 903.032 174.568 904.181C174.778 906.986 174.778 906.986 176.321 908.825C179.196 910.837 181.538 911 185 911C187.642 909.353 188.576 908.67 190 906C190.765 901.568 190.791 897.177 190.813 892.688C190.838 891.47 190.863 890.252 190.889 888.998C190.947 885.998 190.984 883 191 880C193.31 880 195.62 880 198 880C198.117 884.166 198.188 888.332 198.25 892.5C198.3 894.26 198.3 894.26 198.352 896.055C198.432 903.226 197.915 907.929 194 914C189.86 917.889 185.748 918.295 180.281 918.215C175.601 917.774 172.817 915.883 169.688 912.5C166.993 908.508 166.88 905.51 166.902 900.801C166.906 899.592 166.909 898.384 166.912 897.139C166.92 895.876 166.929 894.613 166.938 893.312C166.944 891.401 166.944 891.401 166.951 889.451C166.963 886.301 166.979 883.15 167 880Z" fill="#183156"/>
<path d="M318 880C326.25 880 334.5 880 343 880C343 881.98 343 883.96 343 886C337.06 886 331.12 886 325 886C325 888.97 325 891.94 325 895C329.62 895 334.24 895 339 895C339 896.98 339 898.96 339 901C334.38 901 329.76 901 325 901C325 904.3 325 907.6 325 911C331.27 911 337.54 911 344 911C344 912.98 344 914.96 344 917C335.42 917 326.84 917 318 917C318 904.79 318 892.58 318 880Z" fill="#183157"/>
<path d="M279 880C281.31 880 283.62 880 286 880C286.015 880.731 286.029 881.462 286.044 882.216C286.119 885.54 286.215 888.864 286.313 892.188C286.335 893.338 286.358 894.488 286.381 895.674C286.416 896.786 286.452 897.897 286.488 899.043C286.515 900.064 286.541 901.085 286.568 902.137C287.066 905.44 287.973 907.356 290 910C293.925 911.163 296.072 911.383 299.875 909.812C302.325 907.723 302.468 907.08 303 904C303.145 902.122 303.246 900.241 303.316 898.359C303.358 897.289 303.4 896.22 303.443 895.117C303.483 894.006 303.522 892.895 303.563 891.75C303.606 890.623 303.649 889.497 303.693 888.336C303.799 885.557 303.901 882.779 304 880C305.98 880 307.96 880 310 880C310.087 884.562 310.14 889.125 310.188 893.688C310.213 894.981 310.238 896.275 310.264 897.607C310.273 898.855 310.283 900.102 310.293 901.387C310.309 902.534 310.324 903.68 310.341 904.862C309.822 909.638 307.994 912.127 304.438 915.25C299.741 918.622 295.674 918.712 290 918C285.088 916.239 282.668 914.319 280.289 909.625C278.314 903.878 278.678 898.003 278.813 892C278.826 890.844 278.84 889.687 278.854 888.496C278.889 885.664 278.938 882.832 279 880Z" fill="#183156"/>
<path d="M155.914 881.187C157.562 882.562 157.562 882.562 160 885C159 888 159 888 156.938 889.187C156.298 889.456 155.659 889.724 155 890C154.608 889.526 154.216 889.051 153.812 888.562C151.547 886.609 149.952 886.295 147 886C146.01 886.33 145.02 886.66 144 887C144 888.65 144 890.3 144 892C144.904 892.471 145.807 892.941 146.738 893.426C147.93 894.054 149.121 894.683 150.312 895.312C150.907 895.621 151.502 895.93 152.115 896.248C157.96 899.35 157.96 899.35 160 902C161.05 905.974 161.22 908.326 159.938 912.25C157.53 915.668 155.967 916.678 152 918C145.838 919.027 141.735 917.83 136.531 914.484C134.687 912.696 134.251 911.54 134 909C135.438 907.25 135.438 907.25 137 906C137.99 906.33 138.98 906.66 140 907C140 907.66 140 908.32 140 909C144.327 911.229 147.284 910.925 152 910C152.33 908.68 152.66 907.36 153 906C149.092 903.523 145.192 901.084 141.125 898.875C138 897 138 897 136 894C135.555 889.406 135.344 887.117 137.688 883.125C142.826 878.403 149.788 877.387 155.914 881.187Z" fill="#183156"/>
<path d="M350 184C359.425 192.583 361.312 205.95 361.961 218.062C362.089 230.966 358.892 243.049 352 254C349.493 253.654 348.151 253.125 346.187 251.5C343.848 246.574 345.383 241.74 347.121 236.84C347.97 234.685 348.844 232.539 349.746 230.406C352.518 222.876 353.36 215.745 353.312 207.75C353.311 206.838 353.31 205.925 353.309 204.986C353.205 197.652 352.19 191.027 350 184Z" fill="#4FABDA"/>
<path d="M125 184C125.66 184 126.32 184 127 184C126.795 184.713 126.59 185.426 126.379 186.16C121.233 204.454 122.492 221.043 130.106 238.458C132.013 243.041 132.15 246.187 131 251C129.688 253 129.688 253 128 254C126.121 254.023 126.121 254.023 124 253C122.572 250.524 121.452 248.249 120.375 245.625C120.069 244.897 119.764 244.169 119.449 243.419C112.8 227.046 113.666 209.857 120 193.438C121.427 190.131 122.862 186.916 125 184Z" fill="#438FBA"/>
<path d="M126 1098C128.5 1099 128.5 1099 130 1100C130 1099.34 130 1098.68 130 1098C131.65 1098 133.3 1098 135 1098C135.116 1102.4 135.187 1106.79 135.25 1111.19C135.3 1113.06 135.3 1113.06 135.352 1114.96C135.364 1116.16 135.377 1117.37 135.391 1118.61C135.412 1119.71 135.433 1120.82 135.454 1121.95C134.897 1125.69 133.606 1127.32 131 1130C127.063 1131.97 122.291 1131.46 118 1131C115.529 1129.93 114.061 1128.78 112 1127C112.66 1125.68 113.32 1124.36 114 1123C114.866 1123.33 115.733 1123.66 116.625 1124C120.593 1125.18 124.19 1125.9 128 1124C128 1123.01 128 1122.02 128 1121C127.34 1121.33 126.68 1121.66 126 1122C120.996 1122.38 118.001 1122.11 114 1119C110.625 1115.22 110.439 1112.41 110.57 1107.48C111.267 1103.46 113.039 1101.75 116 1099C119.17 1097.42 122.54 1097.71 126 1098ZM117 1106C116.345 1110 116.4 1112.08 118.625 1115.5C120.963 1117.27 120.963 1117.27 124.063 1117C127.015 1116.2 127.015 1116.2 128.938 1114.31C130.413 1111.1 130.064 1109.34 129 1106C124.888 1101.89 121.359 1102.35 117 1106Z" fill="#183156"/>
<path d="M222 738C224.31 738 226.62 738 229 738C229.02 738.585 229.04 739.17 229.06 739.772C229.156 742.432 229.265 745.091 229.375 747.75C229.406 748.67 229.437 749.591 229.469 750.539C229.507 751.429 229.546 752.318 229.586 753.234C229.617 754.051 229.649 754.868 229.681 755.71C230.03 758.214 230.641 759.873 232 762C234.84 763.046 236.37 763.21 239.25 762.25C241.316 761.034 241.316 761.034 242 758C242.146 756.447 242.247 754.89 242.316 753.332C242.358 752.439 242.4 751.547 242.443 750.627C242.483 749.698 242.522 748.769 242.563 747.812C242.606 746.872 242.649 745.932 242.693 744.963C242.799 742.642 242.901 740.321 243 738C245.31 738 247.62 738 250 738C250.088 741.542 250.141 745.083 250.188 748.625C250.213 749.624 250.238 750.623 250.264 751.652C250.328 758.149 249.781 762.64 245.5 767.812C241.447 771.021 235.882 770.437 231 770C227.237 768.399 225.159 766.454 223 763C222 760 221.884 758.026 221.902 754.895C221.906 753.912 221.909 752.929 221.912 751.916C221.92 750.892 221.929 749.868 221.938 748.812C221.942 747.777 221.947 746.741 221.951 745.674C221.963 743.116 221.979 740.558 222 738Z" fill="#10335A"/>
<path d="M3 1032C5.66062 1031.92 8.32125 1031.83 11.0625 1031.75C11.8863 1031.71 12.7101 1031.68 13.5588 1031.64C19.1983 1031.56 22.3836 1032.74 27 1036C30.0823 1039.24 30.9422 1042.54 31.5 1046.94C31.2304 1051.42 29.8971 1055.54 27 1059C21.5669 1062.9 17.6348 1063.54 11.0625 1063.25C8.40188 1063.17 5.74125 1063.08 3 1063C3 1052.77 3 1042.54 3 1032ZM9 1037C9 1043.93 9 1050.86 9 1058C17.6967 1058.09 17.6967 1058.09 23.8125 1053.25C25.571 1049.92 25.5126 1047.72 25 1044C23.2098 1041.03 21.15 1038.57 18 1037C15.03 1037 12.06 1037 9 1037Z" fill="#183156"/>
<path d="M246 323C249.96 323 253.92 323 258 323C258 336.2 258 349.4 258 363C254.04 363 250.08 363 246 363C246 349.8 246 336.6 246 323Z" fill="#11345A"/>
<path d="M417 1086C418.98 1086 420.96 1086 423 1086C423 1097.88 423 1109.76 423 1122C420.36 1122 417.72 1122 415 1122C414.01 1122.5 414.01 1122.5 413 1123C408.766 1123.41 406.484 1123.26 402.688 1121.25C399.608 1118.67 398.285 1116.82 397.664 1112.85C397.569 1107.41 398.267 1104.25 402 1100C405.408 1097.41 408.842 1097.7 413 1098C414.32 1098.66 415.64 1099.32 417 1100C417 1095.38 417 1090.76 417 1086ZM406.313 1104.56C403.665 1106.88 403.665 1106.88 403.5 1110.56C403.733 1113.89 403.733 1113.89 405.25 1115.88C407.316 1117.2 408.529 1117.85 411 1118C413.804 1117.13 413.804 1117.13 416 1115C417.337 1111.64 417.337 1111.64 417 1108C414.895 1104.98 414.895 1104.98 412 1103C408.914 1102.75 408.914 1102.75 406.313 1104.56Z" fill="#183157"/>
<path d="M342 1091C344.681 1090.92 347.362 1090.84 350.125 1090.75C350.958 1090.71 351.791 1090.68 352.649 1090.64C358.838 1090.55 362.118 1092.52 366.812 1096.56C369.8 1100.18 369.33 1104.84 369.277 1109.27C368.755 1114.41 366.251 1116.97 362.406 1120.14C358.07 1122.51 354.949 1122.46 350.125 1122.25C347.444 1122.17 344.763 1122.09 342 1122C342 1111.77 342 1101.54 342 1091ZM348 1096C348 1102.93 348 1109.86 348 1117C356.127 1117.17 356.127 1117.17 362 1113C363.736 1109.53 363.602 1105.79 363 1102C360.818 1099.24 359.128 1097.56 356 1096C353.36 1096 350.72 1096 348 1096Z" fill="#183156"/>
<path d="M290 1086C291.65 1086 293.3 1086 295 1086C295 1097.88 295 1109.76 295 1122C292.667 1122 290.333 1122 288 1122C287.01 1122.5 287.01 1122.5 286 1123C280.996 1123.38 278.001 1123.11 274 1120C270.422 1116.06 270.446 1112.86 270.57 1107.7C271.239 1103.49 272.874 1101.83 276 1099C278.245 1097.88 279.515 1097.87 282 1097.88C283.052 1097.87 283.052 1097.87 284.125 1097.87C286 1098 286 1098 288 1099C288.091 1097.72 288.091 1097.72 288.184 1096.41C288.267 1095.31 288.351 1094.2 288.437 1093.06C288.519 1091.96 288.6 1090.86 288.684 1089.72C289 1087 289 1087 290 1086ZM278 1105C276.412 1108.25 275.85 1110.18 276.5 1113.75C277.897 1116.23 277.897 1116.23 280.812 1117.5C283.985 1118.26 283.985 1118.26 286.812 1117C289.212 1115.12 289.212 1115.12 290 1112.12C290 1108.39 289.427 1106.83 287 1104C283.43 1102.63 281.039 1102.59 278 1105Z" fill="#183156"/>
<path d="M192 1027C193.65 1027 195.3 1027 197 1027C197 1038.88 197 1050.76 197 1063C194.667 1063 192.333 1063 190 1063C189.01 1063.5 189.01 1063.5 188 1064C182.301 1064.55 179.435 1063.61 175 1060C172.028 1055.54 172.247 1051.23 173 1046C174.652 1042.82 176.754 1040.62 180 1039C187.294 1038.65 187.294 1038.65 192 1041C192 1036.38 192 1031.76 192 1027ZM180 1046C178.412 1049.25 177.85 1051.18 178.5 1054.75C179.897 1057.23 179.897 1057.23 182.813 1058.5C185.985 1059.26 185.985 1059.26 188.813 1058C191.212 1056.12 191.212 1056.12 192 1053.12C192 1049.39 191.427 1047.83 189 1045C185.43 1043.63 183.039 1043.59 180 1046Z" fill="#183156"/>
<path d="M158.75 1099.19C161.364 1101.29 162.642 1102.93 164 1106C164.25 1109.25 164.25 1109.25 164 1112C163 1113 163 1113 159.402 1113.1C157.914 1113.09 156.426 1113.08 154.937 1113.06C153.8 1113.06 153.8 1113.06 152.639 1113.05C150.759 1113.04 148.88 1113.02 147 1113C148.773 1115.09 148.773 1115.09 151 1117C154.625 1116.81 157.565 1116.14 161 1115C161.66 1116.32 162.32 1117.64 163 1119C159.942 1122.35 157.776 1122.94 153.187 1123.31C148.791 1123.24 146.334 1121.95 143 1119C140.169 1114.98 139.506 1111.86 140.352 1106.96C141.497 1103.5 143.393 1101.55 146 1099C150.506 1097.5 154.342 1097.28 158.75 1099.19ZM148.187 1104.38C146.803 1105.93 146.803 1105.93 147 1108C150.63 1108 154.26 1108 158 1108C156.422 1104.32 156.422 1104.32 155 1103C152.073 1102.69 150.574 1102.56 148.187 1104.38Z" fill="#183156"/>
<path d="M220.75 1040.12C223.621 1042.52 224.757 1044.48 226 1048C225.67 1049.98 225.34 1051.96 225 1054C219.72 1054 214.44 1054 209 1054C210.32 1055.32 211.64 1056.64 213 1058C216.033 1057.91 216.033 1057.91 219 1057C219.784 1056.81 220.567 1056.63 221.375 1056.44C221.911 1056.29 222.447 1056.15 223 1056C223.66 1057.32 224.32 1058.64 225 1060C220.971 1063.22 218.174 1064.68 212.957 1064.39C208.585 1063.52 205.856 1061.06 203.125 1057.69C201.649 1054.16 201.534 1051.8 202 1048C206.06 1040.18 212.131 1036.6 220.75 1040.12ZM209.687 1046.5C209.131 1047.32 208.574 1048.15 208 1049C211.96 1049 215.92 1049 220 1049C218.422 1045.32 218.422 1045.32 217 1044C213.203 1043.38 212.366 1043.6 209.687 1046.5Z" fill="#183156"/>
<path d="M76 1098C79.0209 1099.75 81.4161 1101.83 83 1105C83 1107.64 83 1110.28 83 1113C77.39 1113 71.78 1113 66 1113C67.6888 1116.23 67.6888 1116.23 70.75 1116.81C74.3413 1117.02 76.6898 1116.34 80 1115C80.66 1116.65 81.32 1118.3 82 1120C77.4478 1122.66 74.2694 1123.56 69 1123C64.7882 1121.38 62.3407 1119.85 60 1116C59.1622 1110.94 59.185 1106.43 61.75 1101.94C66.1293 1098.17 70.1521 1096.87 76 1098ZM67.625 1104.31C65.7688 1105.85 65.7688 1105.85 66 1108C69.63 1108 73.26 1108 77 1108C76.67 1106.68 76.34 1105.36 76 1104C71.6813 1102.86 71.6813 1102.86 67.625 1104.31Z" fill="#183156"/>
<path d="M469 1039C472.021 1040.75 474.416 1042.83 476 1046C476 1048.64 476 1051.28 476 1054C470.39 1054 464.78 1054 459 1054C460.689 1057.23 460.689 1057.23 463.75 1057.81C467.341 1058.02 469.69 1057.34 473 1056C473.66 1057.65 474.32 1059.3 475 1061C470.448 1063.66 467.269 1064.56 462 1064C457.788 1062.38 455.341 1060.85 453 1057C452.162 1051.94 452.185 1047.43 454.75 1042.94C459.129 1039.17 463.152 1037.87 469 1039ZM460.625 1045.31C458.769 1046.85 458.769 1046.85 459 1049C462.63 1049 466.26 1049 470 1049C469.67 1047.68 469.34 1046.36 469 1045C464.681 1043.86 464.681 1043.86 460.625 1045.31Z" fill="#183156"/>
<path d="M316 1098C319.431 1099.75 321.438 1101.07 323.437 1104.38C324 1107 324 1107 323 1113C317.72 1113 312.44 1113 307 1113C308.32 1114.32 309.64 1115.64 311 1117C314.033 1116.91 314.033 1116.91 317 1116C317.784 1115.81 318.567 1115.63 319.375 1115.44C319.911 1115.29 320.447 1115.15 321 1115C321.66 1116.32 322.32 1117.64 323 1119C318.971 1122.22 316.174 1123.68 310.957 1123.39C306.585 1122.52 303.856 1120.06 301.125 1116.69C299.649 1113.16 299.534 1110.8 300 1107C303.677 1099.92 307.962 1097.01 316 1098ZM306 1107C306 1107.33 306 1107.66 306 1108C309.96 1108 313.92 1108 318 1108C317.01 1106.35 316.02 1104.7 315 1103C310.563 1101.98 308.759 1103.63 306 1107Z" fill="#183156"/>
<path d="M427 1039C431.107 1040.77 433.699 1043.16 436 1047C436.737 1051.03 436.422 1054.1 434.687 1057.81C432.219 1061.01 430.893 1062.7 427 1064C421.774 1064.39 418.408 1063.91 414 1061C410.76 1057.33 410.535 1053.86 410.715 1049.15C411.27 1044.97 413.014 1042.82 416.187 1040.19C419.915 1038.61 423.011 1038.41 427 1039ZM419.312 1045.56C416.665 1047.88 416.665 1047.88 416.5 1051.56C416.733 1054.89 416.733 1054.89 418.25 1056.87C420.316 1058.2 421.529 1058.85 424 1059C426.804 1058.13 426.804 1058.13 429 1056C430.337 1052.64 430.337 1052.64 430 1049C427.895 1045.98 427.895 1045.98 425 1044C421.914 1043.75 421.914 1043.75 419.312 1045.56Z" fill="#183156"/>
<path d="M447.312 1099.69C451.219 1103.05 452.782 1105.29 453.437 1110.44C452.797 1115.66 450.736 1118.59 446.687 1121.88C442.03 1123.82 438.419 1123.55 433.75 1121.75C430.948 1119.97 429.705 1118.81 428 1116C427.162 1110.94 427.185 1106.43 429.75 1101.94C435.207 1097.24 440.826 1096.38 447.312 1099.69ZM435 1105C433.35 1108.38 432.773 1110.15 433.75 1113.81C434.809 1116.14 434.809 1116.14 437 1117C441.843 1117.55 441.843 1117.55 446 1115.44C447.461 1111.88 447.065 1109.66 446 1106C441.996 1102.82 439.306 1102.04 435 1105Z" fill="#183156"/>
<path d="M298 1039C302.111 1040.78 304.733 1043.14 307 1047C307.894 1051.07 307.911 1054.46 305.754 1058.1C303.287 1061.09 301.734 1062.76 298 1064C292.98 1064.37 290.003 1064.14 286 1061C283.569 1058.77 282.189 1057.15 281.648 1053.85C281.476 1049.13 281.835 1045.71 285 1042C289.055 1038.64 292.934 1038.25 298 1039ZM290.313 1045.56C287.665 1047.88 287.665 1047.88 287.5 1051.56C287.733 1054.89 287.733 1054.89 289.25 1056.88C291.317 1058.2 292.529 1058.85 295 1059C297.804 1058.13 297.804 1058.13 300 1056C301.337 1052.64 301.337 1052.64 301 1049C298.895 1045.98 298.895 1045.98 296 1044C292.914 1043.75 292.914 1043.75 290.313 1045.56Z" fill="#183156"/>
<path d="M147 1039C151.107 1040.77 153.699 1043.16 156 1047C156.737 1051.03 156.422 1054.1 154.687 1057.81C152.219 1061.01 150.893 1062.7 147 1064C141.98 1064.37 139.003 1064.14 135 1061C132.569 1058.77 131.189 1057.15 130.648 1053.85C130.476 1049.13 130.835 1045.71 134 1042C138.055 1038.64 141.934 1038.25 147 1039ZM139.312 1045.56C136.665 1047.88 136.665 1047.88 136.5 1051.56C136.733 1054.89 136.733 1054.89 138.25 1056.88C140.316 1058.2 141.529 1058.85 144 1059C146.804 1058.13 146.804 1058.13 149 1056C150.337 1052.64 150.337 1052.64 150 1049C147.895 1045.98 147.895 1045.98 145 1044C141.914 1043.75 141.914 1043.75 139.312 1045.56Z" fill="#183156"/>
<path d="M247 1098C250.443 1100.12 251.716 1101.15 253 1105C253.08 1106.34 253.108 1107.67 253.098 1109.01C253.094 1109.77 253.091 1110.53 253.088 1111.31C253.08 1112.09 253.071 1112.88 253.062 1113.69C253.058 1114.48 253.053 1115.28 253.049 1116.1C253.037 1118.07 253.019 1120.03 253 1122C251.886 1121.98 250.773 1121.96 249.625 1121.94C246.168 1121.74 246.168 1121.74 244 1123C239.954 1123.38 237.652 1123.36 234.062 1121.38C232 1119 232 1119 231.438 1116C232 1113 232 1113 233.312 1110.63C237.611 1108.03 242.101 1108.7 247 1109C246.67 1107.35 246.34 1105.7 246 1104C244.52 1104.11 243.041 1104.24 241.562 1104.38C240.739 1104.44 239.915 1104.51 239.066 1104.59C238.384 1104.72 237.703 1104.86 237 1105C236.67 1105.66 236.34 1106.32 236 1107C235.01 1106.01 234.02 1105.02 233 1104C233.915 1101.71 234.655 1100.27 236.625 1098.75C240.109 1097.65 243.415 1097.41 247 1098ZM238 1114C238.33 1115.32 238.66 1116.64 239 1118C242.465 1117.51 242.465 1117.51 246 1117C246.33 1115.68 246.66 1114.36 247 1113C242.349 1112.73 242.349 1112.73 238 1114Z" fill="#183156"/>
<path d="M377.852 1039.9C379.5 1041 379.5 1041 382 1043C381.688 1044.94 381.688 1044.94 381 1047C380.01 1047.33 379.02 1047.66 378 1048C377.216 1047.48 376.433 1046.97 375.625 1046.44C373.065 1044.64 373.065 1044.64 370.25 1045.75C368.097 1046.81 368.097 1046.81 367 1048C366.5 1051.42 366.5 1051.42 367 1055C369.072 1057.24 369.072 1057.24 372 1058C374.7 1057.35 374.7 1057.35 377 1056C377.66 1055.67 378.32 1055.34 379 1055C379.99 1055.66 380.98 1056.32 382 1057C381.813 1058.87 381.813 1058.87 381 1061C378.438 1062.25 378.438 1062.25 376 1063C376.062 1063.93 376.124 1064.86 376.188 1065.81C376 1069 376 1069 375 1070.87C371.747 1072.7 368.686 1072.18 365 1072C365 1070.68 365 1069.36 365 1068C366.65 1067.67 368.3 1067.34 370 1067C370.33 1066.01 370.66 1065.02 371 1064C370.093 1063.75 369.185 1063.5 368.25 1063.25C364.26 1061.72 361.919 1059.84 360 1056C359.423 1051.27 359.566 1047.85 361.75 1043.56C365.958 1038.77 371.823 1036.97 377.852 1039.9Z" fill="#183156"/>
<path d="M402.375 1039.75C404.407 1041.31 405.019 1042.64 406 1045C406.227 1047.11 406.227 1047.11 406.195 1049.33C406.189 1050.13 406.182 1050.93 406.176 1051.75C406.159 1052.57 406.142 1053.4 406.125 1054.25C406.116 1055.09 406.107 1055.93 406.098 1056.8C406.074 1058.86 406.038 1060.93 406 1063C403.438 1063.3 400.881 1063.57 398.312 1063.81C397.591 1063.9 396.87 1063.99 396.127 1064.08C392.014 1064.44 390.313 1064.24 386.984 1061.71C385 1059 385 1059 384.938 1055.87C386.165 1052.55 386.995 1051.77 390 1050C392.578 1049.71 392.578 1049.71 395.25 1049.81C396.588 1049.85 396.588 1049.85 397.953 1049.89C398.629 1049.93 399.304 1049.96 400 1050C399.67 1048.68 399.34 1047.36 399 1046C395.616 1044.94 394.42 1044.79 391.188 1046.44C390.466 1046.95 389.744 1047.47 389 1048C388.01 1046.68 387.02 1045.36 386 1044C390.906 1038.93 395.486 1037.57 402.375 1039.75ZM393 1054C392.34 1055.32 391.68 1056.64 391 1058C392.112 1059.33 392.112 1059.33 394.938 1059.19C398.109 1059.33 398.109 1059.33 400 1057C400 1056.01 400 1055.02 400 1054C397.69 1054 395.38 1054 393 1054Z" fill="#183156"/>
<path d="M349 1039C351.81 1040.79 353.509 1042.02 355 1045C355.083 1046.38 355.107 1047.75 355.098 1049.13C355.094 1049.94 355.091 1050.74 355.088 1051.57C355.08 1052.42 355.071 1053.26 355.062 1054.13C355.058 1054.97 355.053 1055.82 355.049 1056.7C355.037 1058.8 355.019 1060.9 355 1063C353.886 1062.98 352.773 1062.96 351.625 1062.94C348.168 1062.74 348.168 1062.74 346 1064C341.605 1064.5 339.66 1064.47 336 1061.88C334 1059 334 1059 333.938 1055.88C335.165 1052.55 335.995 1051.77 339 1050C341.578 1049.71 341.578 1049.71 344.25 1049.81C345.588 1049.85 345.588 1049.85 346.953 1049.89C347.629 1049.93 348.304 1049.96 349 1050C348.67 1048.68 348.34 1047.36 348 1046C344.616 1044.94 343.42 1044.79 340.188 1046.44C339.466 1046.95 338.744 1047.47 338 1048C337.01 1047.01 336.02 1046.02 335 1045C335.915 1042.71 336.655 1041.27 338.625 1039.75C342.107 1038.65 345.417 1038.4 349 1039ZM340 1055C340.33 1056.32 340.66 1057.64 341 1059C344.465 1058.51 344.465 1058.51 348 1058C348.33 1056.68 348.66 1055.36 349 1054C344.349 1053.73 344.349 1053.73 340 1055Z" fill="#183156"/>
<path d="M122.375 1039.75C124.407 1041.31 125.019 1042.64 126 1045C126.227 1047.11 126.227 1047.11 126.195 1049.33C126.189 1050.13 126.182 1050.93 126.176 1051.75C126.159 1052.57 126.142 1053.4 126.125 1054.25C126.116 1055.09 126.107 1055.93 126.098 1056.8C126.074 1058.86 126.038 1060.93 126 1063C123.438 1063.3 120.881 1063.57 118.312 1063.81C117.591 1063.9 116.87 1063.99 116.127 1064.08C112.014 1064.44 110.313 1064.24 106.984 1061.71C105 1059 105 1059 104.938 1055.87C106.165 1052.55 106.995 1051.77 110 1050C112.578 1049.71 112.578 1049.71 115.25 1049.81C116.588 1049.85 116.588 1049.85 117.953 1049.89C118.629 1049.93 119.304 1049.96 120 1050C119.34 1048.35 118.68 1046.7 118 1045C114.265 1045.5 112.188 1045.87 109 1048C108.01 1046.68 107.02 1045.36 106 1044C110.906 1038.93 115.486 1037.57 122.375 1039.75ZM113 1054C112.34 1055.32 111.68 1056.64 111 1058C112.112 1059.33 112.112 1059.33 114.938 1059.19C118.109 1059.33 118.109 1059.33 120 1057C120 1056.01 120 1055.02 120 1054C117.69 1054 115.38 1054 113 1054Z" fill="#183156"/>
<path d="M387 1098C391.569 1100.14 391.569 1100.14 393 1103C393.083 1104.45 393.107 1105.9 393.098 1107.35C393.094 1108.2 393.091 1109.05 393.088 1109.93C393.08 1110.82 393.071 1111.71 393.062 1112.63C393.058 1113.52 393.053 1114.42 393.049 1115.34C393.037 1117.56 393.021 1119.78 393 1122C392.051 1121.98 391.103 1121.96 390.125 1121.94C387.093 1121.77 387.093 1121.77 385 1123C380.087 1123.37 376.832 1123.27 373 1120C372 1117.63 372 1117.63 372 1115C374.194 1110.4 374.194 1110.4 377 1109C378.707 1108.93 380.417 1108.92 382.125 1108.94C383.035 1108.95 383.945 1108.96 384.883 1108.96C385.581 1108.98 386.28 1108.99 387 1109C386.34 1107.35 385.68 1105.7 385 1104C381.265 1104.5 379.188 1104.87 376 1107C375.01 1105.68 374.02 1104.36 373 1103C377.764 1098.24 380.253 1097.14 387 1098ZM380 1113C379.01 1114.49 379.01 1114.49 378 1116C378.33 1116.66 378.66 1117.32 379 1118C381.917 1118.17 381.917 1118.17 385 1118C385.66 1117.34 386.32 1116.68 387 1116C387 1115.01 387 1114.02 387 1113C383.584 1112.75 383.584 1112.75 380 1113Z" fill="#183156"/>
<path d="M256 1039C258.537 1038.9 261.074 1038.79 263.688 1038.69C264.477 1038.64 265.267 1038.6 266.081 1038.55C269.9 1038.47 271.692 1038.8 275 1040.91C277.817 1045.26 277.558 1048.75 277.312 1053.81C277.29 1054.7 277.267 1055.58 277.244 1056.49C277.185 1058.66 277.096 1060.83 277 1063C275.02 1063 273.04 1063 271 1063C270.67 1057.39 270.34 1051.78 270 1046C268.68 1045.67 267.36 1045.34 266 1045C265.01 1045.66 264.02 1046.32 263 1047C262.616 1049.77 262.397 1052.34 262.312 1055.12C262.278 1055.88 262.244 1056.63 262.209 1057.41C262.126 1059.27 262.062 1061.14 262 1063C260.02 1063 258.04 1063 256 1063C256 1055.08 256 1047.16 256 1039Z" fill="#183157"/>
<path d="M16 1098C18.6667 1098 21.3333 1098 24 1098C25.6706 1097.88 25.6706 1097.88 27.375 1097.75C31.6349 1098.04 33.0633 1098.98 36 1102C36.9024 1104.71 37.1185 1106.24 37.0977 1109.01C37.0944 1109.77 37.0912 1110.53 37.0879 1111.31C37.0795 1112.09 37.0711 1112.88 37.0625 1113.69C37.058 1114.48 37.0535 1115.28 37.0488 1116.1C37.0371 1118.07 37.0191 1120.03 37 1122C35.02 1122 33.04 1122 31 1122C30.9265 1120.3 30.9265 1120.3 30.8516 1118.57C30.7765 1117.09 30.701 1115.61 30.625 1114.12C30.5941 1113.38 30.5631 1112.63 30.5312 1111.86C30.4436 1107.47 30.4436 1107.47 28 1104C26.35 1104.33 24.7 1104.66 23 1105C22.67 1110.61 22.34 1116.22 22 1122C20.02 1122 18.04 1122 16 1122C16 1114.08 16 1106.16 16 1098Z" fill="#183156"/>
<path d="M169 1098C171.667 1098 174.333 1098 177 1098C178.671 1097.88 178.671 1097.88 180.375 1097.75C184.65 1098.04 186.089 1098.92 189 1102C190.326 1106.02 190.111 1110.07 190.062 1114.25C190.058 1115 190.053 1115.74 190.049 1116.51C190.037 1118.34 190.019 1120.17 190 1122C188.02 1122 186.04 1122 184 1122C183.963 1120.95 183.925 1119.9 183.887 1118.82C183.821 1117.45 183.755 1116.07 183.688 1114.69C183.665 1114 183.642 1113.31 183.619 1112.6C183.461 1109.61 183.341 1107.48 181.59 1105.01C180.012 1103.78 180.012 1103.78 177.875 1104.19C175.81 1104.84 175.81 1104.84 175 1107C174.768 1109.55 174.581 1112.07 174.438 1114.62C174.394 1115.33 174.351 1116.04 174.307 1116.77C174.201 1118.51 174.1 1120.26 174 1122C172.35 1122 170.7 1122 169 1122C169 1114.08 169 1106.16 169 1098Z" fill="#183156"/>
<path d="M315 124C316.65 125.65 318.3 127.3 320 129C319.7 129.895 319.399 130.789 319.09 131.711C315.355 143.586 315.71 151.05 320.828 162.472C323.053 167.542 324.62 172.677 323.582 178.242C322.352 180.852 321.365 182.738 319 184.438C317 185 317 185 314 185C313.977 177.194 313.959 169.389 313.948 161.583C313.943 157.959 313.936 154.334 313.925 150.71C313.914 147.215 313.908 143.721 313.905 140.226C313.902 138.238 313.895 136.249 313.887 134.261C313.887 133.06 313.887 131.859 313.886 130.621C313.884 129.558 313.882 128.494 313.88 127.398C314 125 314 125 315 124Z" fill="#499ECC"/>
<path d="M211 1098C213.382 1099.45 215.005 1101.01 217 1103C215.625 1105 215.625 1105 214 1107C213.34 1107 212.68 1107 212 1107C212 1106.34 212 1105.68 212 1105C209.032 1104.33 206.686 1103.85 203.687 1104.5C201.651 1106.03 201.651 1106.03 201.125 1109.44C200.649 1113.11 200.649 1113.11 203 1116C204.806 1117.01 204.806 1117.01 207 1117C207.804 1116.48 208.609 1115.97 209.437 1115.44C210.283 1114.96 211.129 1114.49 212 1114C214.812 1114.81 214.812 1114.81 217 1116C215.989 1118.66 215.06 1119.95 212.812 1121.75C209.216 1123.35 206.906 1123.48 203 1123C198.66 1120.75 195.903 1118.55 194 1114C193.458 1109.74 193.699 1107.58 195.687 1103.75C199.921 1098.72 204.34 1096.55 211 1098Z" fill="#183156"/>
<path d="M97 1039C99.9375 1040.5 99.9375 1040.5 102 1042C101.34 1043.32 100.68 1044.64 100 1046C97.36 1045.67 94.72 1045.34 92 1045C92 1045.66 92 1046.32 92 1047C92.5543 1047.27 93.1086 1047.53 93.6797 1047.8C94.4041 1048.16 95.1286 1048.51 95.875 1048.87C96.9539 1049.4 96.9539 1049.4 98.0547 1049.93C100 1051 100 1051 102 1053C102.438 1056.37 102.438 1056.37 102 1060C99.3088 1063.18 97.6943 1063.91 93.5625 1064.44C89.7719 1063.97 87.2769 1062.92 84 1061C84.33 1059.35 84.66 1057.7 85 1056C85.8044 1056.22 85.8044 1056.22 86.625 1056.44C89.3992 1057.09 92.1853 1057.55 95 1058C95.33 1057.01 95.66 1056.02 96 1055C95.0925 1054.71 94.185 1054.42 93.25 1054.12C86.3721 1051.74 86.3721 1051.74 85 1049C84.625 1046.12 84.625 1046.12 85 1043C88.6164 1038.84 91.6319 1038.33 97 1039Z" fill="#183156"/>
<path d="M469 1098C471.938 1099.5 471.938 1099.5 474 1101C473.34 1102.32 472.68 1103.64 472 1105C469.36 1104.67 466.72 1104.34 464 1104C464 1104.66 464 1105.32 464 1106C464.554 1106.27 465.109 1106.53 465.68 1106.8C466.404 1107.16 467.129 1107.51 467.875 1107.87C468.954 1108.4 468.954 1108.4 470.055 1108.93C472 1110 472 1110 474 1112C474.438 1115.37 474.438 1115.37 474 1119C471.309 1122.18 469.694 1122.91 465.562 1123.44C461.772 1122.97 459.277 1121.92 456 1120C456.33 1118.68 456.66 1117.36 457 1116C460.509 1116 463.565 1116.38 467 1117C467.33 1116.01 467.66 1115.02 468 1114C467.113 1113.75 466.226 1113.5 465.312 1113.25C461.775 1111.91 459.598 1110.75 457 1108C456.375 1105 456.375 1105 457 1102C460.616 1097.84 463.632 1097.33 469 1098Z" fill="#183156"/>
<path d="M44 1092C45.6661 1091.96 47.3338 1091.96 49 1092C50 1093 50 1093 50.0625 1095.56C50.0419 1096.37 50.0213 1097.17 50 1098C51.98 1098 53.96 1098 56 1098C56.3822 1099.66 56.714 1101.32 57 1103C56.67 1103.33 56.34 1103.66 56 1104C54.02 1104 52.04 1104 50 1104C50.33 1107.96 50.66 1111.92 51 1116C54.6362 1117.08 54.6362 1117.08 57 1117C57 1118.98 57 1120.96 57 1123C52.4799 1123.38 50.0165 1123.55 46 1121.38C42.7708 1115.93 43.6236 1110.18 44 1104C42.68 1104 41.36 1104 40 1104C40 1102.02 40 1100.04 40 1098C41.32 1098 42.64 1098 44 1098C44 1096.02 44 1094.04 44 1092Z" fill="#183256"/>
<path d="M161 124C163.301 127.451 163.223 128.615 163.135 132.665C163.115 133.826 163.095 134.987 163.074 136.183C163.042 137.436 163.01 138.689 162.977 139.98C162.952 141.264 162.927 142.547 162.901 143.869C162.834 147.277 162.755 150.685 162.674 154.093C162.593 157.571 162.523 161.05 162.453 164.529C162.313 171.353 162.161 178.177 162 185C156.242 183.32 156.242 183.32 154.062 180.438C151.744 172.936 154.241 167.211 157.062 160.25C161.169 149.954 161.097 141.555 157.402 131.102C157 129 157 129 158.812 125.875C159.534 125.256 160.256 124.637 161 124Z" fill="#408AB4"/>
<path d="M308 1039C309.98 1039 311.96 1039 314 1039C316.31 1043.29 318.62 1047.58 321 1052C322.98 1047.71 324.96 1043.42 327 1039C328.98 1039 330.96 1039 333 1039C332.079 1044.37 329.985 1048.85 327.688 1053.75C327.296 1054.63 326.905 1055.5 326.502 1056.4C326.113 1057.23 325.725 1058.07 325.324 1058.92C324.974 1059.68 324.625 1060.44 324.264 1061.22C323 1063 323 1063 320.855 1063.75C320.243 1063.84 319.631 1063.92 319 1064C317.16 1060.21 315.329 1056.42 313.5 1052.62C312.975 1051.54 312.451 1050.46 311.91 1049.35C311.166 1047.8 311.166 1047.8 310.406 1046.23C309.715 1044.8 309.715 1044.8 309.01 1043.34C308 1041 308 1041 308 1039Z" fill="#183156"/>
<path d="M45 1039C46.98 1039 48.96 1039 51 1039C52.98 1043.29 54.96 1047.58 57 1052C59.3654 1049.63 60.2754 1047.43 61.625 1044.38C62.071 1043.37 62.517 1042.37 62.9766 1041.34C63.3143 1040.57 63.652 1039.79 64 1039C65.98 1039 67.96 1039 70 1039C68.3391 1044.57 65.8893 1049.66 63.375 1054.88C62.9548 1055.75 62.5345 1056.63 62.1016 1057.54C61.0708 1059.69 60.0369 1061.85 59 1064C58.01 1064 57.02 1064 56 1064C54.1604 1060.21 52.3294 1056.42 50.5 1052.62C49.9754 1051.54 49.4507 1050.46 48.9102 1049.35C48.1657 1047.8 48.1657 1047.8 47.4062 1046.23C46.715 1044.8 46.715 1044.8 46.0098 1043.34C45 1041 45 1041 45 1039Z" fill="#183156"/>
<path d="M321 277C320 279 320 279 317.778 279.845C309.655 281.96 302.117 282.365 293.75 282.188C292.516 282.174 291.283 282.16 290.012 282.146C287.007 282.112 284.004 282.063 281 282C281 281.34 281 280.68 281 280C293.435 269.923 306.928 272.398 321 277Z" fill="#3E87B1"/>
<path d="M191 277C192.71 278.622 194.387 280.281 196 282C191.75 282.088 187.501 282.141 183.25 282.188C181.469 282.225 181.469 282.225 179.652 282.264C171.829 282.328 164.382 281.808 157 279C156.67 278.34 156.34 277.68 156 277C168.062 273.056 179.38 270.08 191 277Z" fill="#4699C5"/>
<path d="M214 1C214.33 3.64 214.66 6.28 215 9C206.218 12.2524 197.14 14.0577 188 16C185 10.25 185 10.25 185 8C189.269 6.82721 193.541 5.66282 197.812 4.5C199.027 4.16613 200.242 3.83227 201.494 3.48828C202.658 3.17246 203.821 2.85664 205.02 2.53125C206.093 2.23799 207.167 1.94473 208.273 1.64258C211 1 211 1 214 1Z" fill="#3B82AD"/>
<path d="M263 1C282.532 5.19149 282.532 5.19149 291 8C290.125 13.75 290.125 13.75 289 16C279.859 14.5281 270.955 12.3146 262 10C261.875 3.25 261.875 3.25 263 1Z" fill="#3C85AF"/>
<path d="M224 0C233.57 0 243.14 0 253 0C252.67 2.64 252.34 5.28 252 8C242.76 8 233.52 8 224 8C224 5.36 224 2.72 224 0Z" fill="#3A81AB"/>
<path d="M221 248C222.905 248.126 222.905 248.126 224.848 248.254C235.358 248.894 245.513 249.033 256 248C255.34 250.31 254.68 252.62 254 255C250.555 255.778 247.369 256.128 243.84 256.133C242.881 256.134 241.923 256.135 240.936 256.137C239.452 256.131 239.452 256.131 237.938 256.125C236.944 256.129 235.951 256.133 234.928 256.137C233.971 256.135 233.013 256.134 232.027 256.133C231.158 256.132 230.29 256.131 229.394 256.129C227.127 256.007 225.174 255.634 223 255C222.34 252.69 221.68 250.38 221 248Z" fill="#4597C4"/>
<path d="M88 1086C89.98 1086 91.96 1086 94 1086C94 1097.88 94 1109.76 94 1122C92.02 1122 90.04 1122 88 1122C88 1110.12 88 1098.24 88 1086Z" fill="#183157"/>
<path d="M120 194C120.33 194 120.66 194 121 194C121 210.83 121 227.66 121 245C119.16 242.24 118.355 240.316 117.438 237.188C117.189 236.356 116.94 235.525 116.684 234.668C113.224 221.167 114.505 206.805 120 194Z" fill="#34769F"/>
<path d="M3 1091C4.98 1091 6.96 1091 9 1091C9 1101.23 9 1111.46 9 1122C7.02 1122 5.04 1122 3 1122C3 1111.77 3 1101.54 3 1091Z" fill="#183157"/>
<path d="M244 1032C245.98 1032 247.96 1032 250 1032C250 1042.23 250 1052.46 250 1063C248.02 1063 246.04 1063 244 1063C244 1052.77 244 1042.54 244 1032Z" fill="#183156"/>
<path d="M353 218C353.33 218 353.66 218 354 218C354.05 222.484 354.086 226.968 354.11 231.452C354.12 232.977 354.134 234.502 354.151 236.026C354.175 238.221 354.186 240.415 354.195 242.609C354.206 243.929 354.216 245.249 354.227 246.608C354.018 249.732 353.666 251.406 352 254C349.493 253.654 348.151 253.125 346.187 251.5C343.848 246.574 345.383 241.74 347.121 236.84C347.999 234.614 348.888 232.392 349.789 230.176C351.325 226.148 352.211 222.231 353 218Z" fill="#428EB9"/>
<path d="M162 127C162.66 127 163.32 127 164 127C165.297 129.593 165.12 131.464 165.114 134.368C165.113 136.049 165.113 136.049 165.113 137.765C165.108 138.979 165.103 140.194 165.098 141.445C165.096 142.685 165.095 143.926 165.093 145.203C165.089 148.501 165.08 151.799 165.069 155.097C165.058 158.462 165.054 161.827 165.049 165.191C165.038 171.794 165.021 178.397 165 185C164.01 185 163.02 185 162 185C162 165.86 162 146.72 162 127Z" fill="#489DCA"/>
<path d="M313 127C313.33 127 313.66 127 314 127C314 146.14 314 165.28 314 185C313.01 185 312.02 185 311 185C310.949 177.222 310.914 169.444 310.89 161.666C310.88 159.019 310.866 156.372 310.849 153.725C310.825 149.925 310.814 146.125 310.805 142.324C310.794 141.137 310.784 139.949 310.773 138.726C310.773 137.625 310.773 136.524 310.773 135.389C310.769 134.419 310.764 133.449 310.76 132.449C311 130 311 130 313 127Z" fill="#428DB8"/>
<path d="M357 197C362.702 202.702 361.948 214.496 362 222C361.432 228.951 360.344 235.423 358 242C357.67 242 357.34 242 357 242C357 227.15 357 212.3 357 197Z" fill="#55B8E8"/>
<path d="M100 1098C101.65 1098 103.3 1098 105 1098C106 1099 106 1099 106.114 1101.22C106.108 1102.18 106.103 1103.14 106.098 1104.13C106.093 1105.68 106.093 1105.68 106.088 1107.26C106.08 1108.35 106.071 1109.44 106.062 1110.56C106.058 1111.65 106.053 1112.75 106.049 1113.87C106.037 1116.58 106.021 1119.29 106 1122C104.02 1122 102.04 1122 100 1122C100 1114.08 100 1106.16 100 1098Z" fill="#183156"/>
<path d="M177 12C178.765 15.0881 179 16.2331 179 20C172.565 22.97 172.565 22.97 166 26C163 21 163 21 163.008 18.8594C164.433 16.1884 166.162 15.524 168.875 14.25C170.201 13.608 170.201 13.608 171.555 12.9531C174 12 174 12 177 12Z" fill="#53B4E3"/>
<path d="M300 12C304.972 13.4917 309.418 15.6046 314 18C312.719 21.6455 311.833 23.1667 309 26C305.04 24.02 301.08 22.04 297 20C298.875 13.125 298.875 13.125 300 12Z" fill="#418DB8"/>
<path d="M317 157C320.308 158.654 320.837 161.968 322.102 165.305C323.79 170.37 324.724 174.771 322.812 179.938C322.214 180.948 321.616 181.959 321 183C319.68 183.33 318.36 183.66 317 184C317 175.09 317 166.18 317 157Z" fill="#53B5E5"/>
<path d="M222 1098C223.65 1098 225.3 1098 227 1098C227 1105.92 227 1113.84 227 1122C225.35 1122 223.7 1122 222 1122C222 1114.08 222 1106.16 222 1098Z" fill="#183257"/>
<path d="M74 1039C75.65 1039 77.3 1039 79 1039C79 1046.92 79 1054.84 79 1063C77.35 1063 75.7 1063 74 1063C74 1055.08 74 1047.16 74 1039Z" fill="#183257"/>
<path d="M36 1039C37.65 1039 39.3 1039 41 1039C41 1046.92 41 1054.84 41 1063C39.35 1063 37.7 1063 36 1063C36 1055.08 36 1047.16 36 1039Z" fill="#183257"/>
<path d="M238 719C240.97 719 243.94 719 247 719C246.422 722.785 245.393 725.559 243.375 728.812C242.675 729.998 242.675 729.998 241.961 731.207C240 733 240 733 233 733C234.65 728.38 236.3 723.76 238 719Z" fill="#11335A"/>
<path d="M125 228C128.672 233.508 132.774 241.321 132 248.125C131.021 250.94 130.487 252.374 128 254C127.01 254 126.02 254 125 254C125 245.42 125 236.84 125 228Z" fill="#53B1E1"/>
<path d="M214 1C214.33 3.64 214.66 6.28 215 9C213.586 9.50758 212.169 10.0057 210.75 10.5C209.961 10.7784 209.172 11.0569 208.359 11.3438C206 12 206 12 202 12C202 9.36 202 6.72 202 4C203.436 3.4944 204.874 2.99573 206.312 2.5C207.113 2.22156 207.914 1.94313 208.738 1.65625C211 1 211 1 214 1Z" fill="#53B2E2"/>
<path d="M396 1028C398.312 1029.06 398.312 1029.06 400 1030C400 1029.34 400 1028.68 400 1028C401.65 1028 403.3 1028 405 1028C404.25 1033.75 404.25 1033.75 402 1036C399.989 1035.74 397.988 1035.4 396 1035C394.68 1035 393.36 1035 392 1035C390.68 1035 389.36 1035 388 1035C388.256 1032.66 388.593 1030.32 389 1028C391.722 1026.64 393.093 1027.24 396 1028Z" fill="#183156"/>
<path d="M116 1028C118.312 1029.06 118.312 1029.06 120 1030C120 1029.34 120 1028.68 120 1028C121.65 1028 123.3 1028 125 1028C124.25 1033.75 124.25 1033.75 122 1036C119.989 1035.74 117.988 1035.4 116 1035C114.68 1035 113.36 1035 112 1035C110.68 1035 109.36 1035 108 1035C108.256 1032.66 108.593 1030.32 109 1028C111.722 1026.64 113.093 1027.24 116 1028Z" fill="#183156"/>
<path d="M303 273C309.437 273.511 314.959 274.729 321 277C320 279 320 279 317.453 279.852C315.868 280.234 315.868 280.234 314.25 280.625C312.68 281.016 312.68 281.016 311.078 281.414C308.287 281.945 305.829 282.115 303 282C303 279.03 303 276.06 303 273Z" fill="#52B0DF"/>
<path d="M150 1085C152.418 1084.54 152.418 1084.54 155 1085C156.801 1086.9 156.801 1086.9 158.312 1089.38C158.824 1090.19 159.336 1091 159.863 1091.84C161 1094 161 1094 161 1096C158.75 1096.25 158.75 1096.25 156 1096C153.688 1094 153.688 1094 152 1092C151.608 1092.66 151.216 1093.32 150.812 1094C149 1096 149 1096 146.312 1096.25C145.549 1096.17 144.786 1096.09 144 1096C144.622 1094.73 145.248 1093.46 145.875 1092.19C146.223 1091.48 146.571 1090.77 146.93 1090.04C148 1088 148 1088 150 1085Z" fill="#183156"/>
<path d="M240 0C244.29 0 248.58 0 253 0C252.67 2.64 252.34 5.28 252 8C248.04 8 244.08 8 240 8C240 5.36 240 2.72 240 0Z" fill="#53B2E2"/>
<path d="M122 220C122.66 220 123.32 220 124 220C125.128 223.606 125.114 226.971 125.098 230.734C125.094 232.03 125.091 233.325 125.088 234.66C125.08 236.023 125.071 237.387 125.062 238.75C125.057 240.129 125.053 241.508 125.049 242.887C125.037 246.258 125.021 249.629 125 253C121.73 249.515 121.645 246.955 121.707 242.266C121.717 240.97 121.726 239.675 121.736 238.34C121.761 236.977 121.787 235.613 121.812 234.25C121.828 232.871 121.841 231.492 121.854 230.113C121.889 226.742 121.938 223.371 122 220Z" fill="#4697C4"/>
<path d="M280 5C285.445 6.485 285.445 6.485 291 8C290.125 13.75 290.125 13.75 289 16C285.7 15.34 282.4 14.68 279 14C279.33 11.03 279.66 8.06 280 5Z" fill="#54B5E4"/>
<path d="M171 212C171.66 212 172.32 212 173 212C174.297 213.906 174.297 213.906 175.75 216.5C178.517 221.284 181.583 225.663 185 230C179.124 229.713 175.936 227.087 172 223C170.797 220.595 170.899 219.05 170.938 216.375C170.947 215.558 170.956 214.74 170.965 213.898C170.976 213.272 170.988 212.645 171 212Z" fill="#32749D"/>
<path d="M304 212C304.66 212 305.32 212 306 212C306.486 215.97 306.832 219.504 304.84 223.086C302.045 226.474 299.42 229.044 295 230C294.01 229.67 293.02 229.34 292 229C292.447 228.527 292.895 228.054 293.355 227.566C297.775 222.733 301.063 217.847 304 212Z" fill="#54B5E5"/>
<path d="M350 184C354.941 188.782 354.941 188.782 355.12 192.48C355.118 193.524 355.116 194.568 355.114 195.643C355.113 196.824 355.113 198.005 355.113 199.222C355.108 200.502 355.103 201.783 355.098 203.102C355.096 204.408 355.095 205.715 355.093 207.061C355.09 210.537 355.08 214.012 355.069 217.487C355.058 221.033 355.054 224.579 355.049 228.125C355.038 235.083 355.021 242.042 355 249C354.67 249 354.34 249 354 249C353.994 248.377 353.988 247.755 353.982 247.113C353.918 240.574 353.833 234.036 353.738 227.497C353.704 225.064 353.676 222.631 353.654 220.198C353.62 216.68 353.567 213.162 353.512 209.645C353.502 208.039 353.502 208.039 353.492 206.401C353.344 198.627 351.997 191.507 350 184Z" fill="#4A9FCB"/>
<path d="M157 160C157.33 160 157.66 160 158 160C158 167.92 158 175.84 158 184C153.805 179.805 153.24 179 152.816 173.594C153.159 168.751 155.078 164.414 157 160Z" fill="#33769F"/>
<path d="M349 233C349.33 233 349.66 233 350 233C350 239.93 350 246.86 350 254C345 249 345 249 344.625 246.789C344.749 246.075 344.873 245.361 345 244.625C345.133 243.855 345.266 243.086 345.402 242.293C346.266 238.98 347.495 236.075 349 233Z" fill="#3679A3"/>
<path d="M307 139C307.33 139 307.66 139 308 139C308 147.91 308 156.82 308 166C305.427 160.853 304.846 157.369 304.812 151.625C304.798 150.524 304.784 149.423 304.77 148.289C305.008 144.885 305.786 142.176 307 139Z" fill="#2C6C95"/>
<path d="M306 15C311.75 16.875 311.75 16.875 314 18C312.814 21.375 311.724 23.6472 309 26C308.01 25.34 307.02 24.68 306 24C305.707 21.8359 305.707 21.8359 305.812 19.375C305.84 18.5577 305.867 17.7405 305.895 16.8984C305.947 15.9587 305.947 15.9587 306 15Z" fill="#51AFDE"/>
<path d="M170 15C170 17.97 170 20.94 170 24C168.02 24.99 168.02 24.99 166 26C162.981 21.6531 162.981 21.6531 163.063 18.8125C164.571 15.8962 166.784 15 170 15Z" fill="#3E85AF"/>
<path d="M223 267C224.982 267.783 226.961 268.577 228.938 269.375C230.04 269.816 231.142 270.257 232.277 270.711C235 272 235 272 236 274C231.71 274 227.42 274 223 274C223 271.69 223 269.38 223 267Z" fill="#54B7E7"/>
<path d="M315 124C316.65 125.65 318.3 127.3 320 129C318.68 133.62 317.36 138.24 316 143C315.67 143 315.34 143 315 143C315 136.73 315 130.46 315 124Z" fill="#4CA6D5"/>
<path d="M224.5 1086.88C227 1087 227 1087 228 1088C228.125 1090.5 228.125 1090.5 228 1093C227 1094 227 1094 224.5 1094.12C222 1094 222 1094 221 1093C220.875 1090.5 220.875 1090.5 221 1088C222 1087 222 1087 224.5 1086.88Z" fill="#183156"/>
<path d="M102.562 1086.94C103.769 1086.97 103.769 1086.97 105 1087C105.66 1088.32 106.32 1089.64 107 1091C106.01 1092.49 106.01 1092.49 105 1094C103.35 1093.67 101.7 1093.34 100 1093C99.6178 1091.34 99.286 1089.68 99 1088C100 1087 100 1087 102.562 1086.94Z" fill="#183156"/>
<path d="M76.5 1027.88C79 1028 79 1028 80 1029C80.125 1031.5 80.125 1031.5 80 1034C79 1035 79 1035 76.5 1035.12C74 1035 74 1035 73 1034C72.875 1031.5 72.875 1031.5 73 1029C74 1028 74 1028 76.5 1027.88Z" fill="#183156"/>
<path d="M38.5 1027.88C41 1028 41 1028 42 1029C42.0407 1030.67 42.0427 1032.33 42 1034C37.25 1035.12 37.25 1035.12 35 1034C34.9573 1032.33 34.9594 1030.67 35 1029C36 1028 36 1028 38.5 1027.88Z" fill="#183156"/>
<path d="M176 219C179.595 222.329 182.224 225.99 185 230C181.265 229.502 179.188 229.125 176 227C175.592 224.288 175.867 221.756 176 219Z" fill="#4AA1CE"/>
<path d="M300 219C300.33 219 300.66 219 301 219C301 221.64 301 224.28 301 227C298.188 228.562 298.188 228.562 295 230C294.01 229.67 293.02 229.34 292 229C292.494 228.446 292.987 227.891 293.496 227.32C294.137 226.596 294.777 225.871 295.438 225.125C296.076 224.406 296.714 223.686 297.371 222.945C299.05 221.092 299.05 221.092 300 219Z" fill="#479BC6"/>
<path d="M155 165C155.33 165 155.66 165 156 165C156 170.28 156 175.56 156 181C155.34 180.67 154.68 180.34 154 180C152.606 174.662 152.782 170.089 155 165Z" fill="#2C6A93"/>
<path d="M300 12C300.66 12 301.32 12 302 12C302 15.3 302 18.6 302 22C299.525 21.01 299.525 21.01 297 20C298.875 13.125 298.875 13.125 300 12Z" fill="#32739D"/>
<path d="M251 269C251 270.65 251 272.3 251 274C247.7 274 244.4 274 241 274C244.048 270.952 246.58 269 251 269Z" fill="#3679A3"/>
<path d="M350 184C354.955 188.795 354.955 188.795 355.098 192.602C355.086 193.599 355.074 194.597 355.062 195.625C355.053 196.628 355.044 197.631 355.035 198.664C355.024 199.435 355.012 200.206 355 201C353.035 197.548 352.225 194.115 351.375 190.25C351.115 189.08 350.854 187.909 350.586 186.703C350.393 185.811 350.199 184.919 350 184Z" fill="#4596C1"/>
<path d="M347 238C347.33 238 347.66 238 348 238C348 242.62 348 247.24 348 252C345 249 345 249 344.891 246.809C345.009 246.026 345.128 245.244 345.25 244.438C345.358 243.652 345.467 242.867 345.578 242.059C346 240 346 240 347 238Z" fill="#2D6B94"/>
<path d="M161 125C161 129.62 161 134.24 161 139C158.752 135.628 157.767 132.974 157 129C159.154 125 159.154 125 161 125Z" fill="#3E86AF"/>
<path d="M173 13C173 16.3 173 19.6 173 23C172.01 23.33 171.02 23.66 170 24C170 20.7 170 17.4 170 14C172 13 172 13 173 13Z" fill="#469AC7"/>
<path d="M167 16C167 19.3 167 22.6 167 26C164.938 23.75 164.938 23.75 163 21C163.125 18.75 163.125 18.75 164 17C166 16 166 16 167 16Z" fill="#31729A"/>
<path d="M223 267C224.98 267.99 224.98 267.99 227 269C227 270.65 227 272.3 227 274C225.68 274 224.36 274 223 274C223 271.69 223 269.38 223 267Z" fill="#4DA5D3"/>
<path d="M255 267C254.67 269.31 254.34 271.62 254 274C253.01 274 252.02 274 251 274C251 272.02 251 270.04 251 268C253 267 253 267 255 267Z" fill="#4391BB"/>
<path d="M255 268C256.485 268.99 256.485 268.99 258 270C258 271.32 258 272.64 258 274C256.68 274 255.36 274 254 274C253.957 272.334 253.959 270.666 254 269C254.33 268.67 254.66 268.34 255 268Z" fill="#489DCA"/>
<path d="M259 271C263.455 271.99 263.455 271.99 268 273C268 273.33 268 273.66 268 274C264.7 274 261.4 274 258 274C258.33 273.01 258.66 272.02 259 271Z" fill="#53B4E3"/>
<path d="M297 223C297.33 223 297.66 223 298 223C298 224.98 298 226.96 298 229C296.02 229.33 294.04 229.66 292 230C292.808 228.831 293.622 227.664 294.438 226.5C294.89 225.85 295.342 225.201 295.809 224.531C296.202 224.026 296.595 223.521 297 223Z" fill="#387DA6"/>
</g>
<defs>
<clipPath id="clip0_9_3">
<rect width="478" height="1137" fill="white"/>
</clipPath>
</defs>
</svg>
